<svg fill="none" height="128" width="128" xmlns="http://www.w3.org/2000/svg" xmlns:xlink="http://www.w3.org/1999/xlink"><clipPath id="a"><path d="m0 0h127v127h-127z" transform="translate(.24219 .24268)"/></clipPath><g clip-path="url(#a)"><path d="m63.7422.24268 7.0452 9.98672 9.3898-7.82301 4.2203 11.46991 11.0947-5.12623 1.1079 12.17143 12.0429-2.0801-2.08 12.0434 12.172 1.1079-5.127 11.0947 11.47 4.2203-7.823 9.3898 9.987 7.0452-9.987 7.0452 7.823 9.3898-11.47 4.2203 5.127 11.0947-12.172 1.1079 2.08 12.0434-12.0429-2.08-1.1079 12.172-11.0947-5.127-4.2203 11.47-9.3898-7.823-7.0452 9.987-7.0452-9.987-9.3898 7.823-4.2203-11.47-11.0947 5.127-1.1079-12.172-12.0434 2.08 2.0801-12.0434-12.17142-1.1079 5.12622-11.0947-11.4699-4.2203 7.823-9.3898-9.98671-7.0452 9.98671-7.0452-7.823-9.3898 11.4699-4.2203-5.12622-11.0947 12.17142-1.1079-2.0801-12.0434 12.0434 2.0801 1.1079-12.17143 11.0947 5.12623 4.2203-11.46991 9.3898 7.82301z" fill="#34bf6c"/><path d="m41.3677 61.2427 4.5127-7.1026-4.395-6.6317h3.5513l3.0216 5.219 3.0215-5.219h3.5121l-4.4146 6.6317 4.5127 7.1026h-3.4925l-3.1392-5.4545-3.1393 5.4545zm24.7803-10.3989v10.3989h-2.7272l.0784-7.6716-2.9823 7.6716h-4.081v-10.3989h2.7469l-.0785 7.7697 3.0215-7.7697zm1.993 2.1583v-2.1583h10.9482v2.1583h-4.0614v8.2406h-2.8057v-8.2406zm-35.4012 26.2406h-2.8058v-8.2406h-4.4538v8.2406h-2.8057v-10.3989h10.0653zm4.6928-10.3989.8633 2.2956c.1831-.3924.4185-.739.7063-1.0398.2878-.314.6082-.5756.9614-.7849.3532-.2223.7325-.3858 1.138-.4905.4055-.1177.811-.1766 1.2165-.1766.654 0 1.2491.1243 1.7854.3728.5494.2355 1.0137.5821 1.3931 1.0399.3924.4578.6932 1.0268.9025 1.707.2093.6671.3139 1.4257.3139 2.276 0 .8502-.1046 1.6088-.3139 2.2759s-.5101 1.2361-.9025 1.707c-.3794.4578-.8372.811-1.3735 1.0595-.5362.2355-1.1314.3532-1.7854.3532-.7979 0-1.5566-.2028-2.276-.6083-.7194-.4054-1.2688-.9679-1.6481-1.6873v5.2386h-2.8057v-13.5381zm.981 6.7691c.4055.5494.8568.9679 1.3538 1.2557.5101.2747 1.0399.412 1.5893.412.824 0 1.4519-.2812 1.8835-.8436.4448-.5625.6671-1.3604.6671-2.3937 0-1.0334-.2223-1.8313-.6671-2.3937-.4316-.5625-1.0595-.8437-1.8835-.8437-.5887 0-1.1315.1439-1.6285.4316-.4971.2747-.9353.6802-1.3146 1.2165zm15.5533-6.9653c.8764 0 1.6678.1308 2.3741.3924.7063.2486 1.3015.6083 1.7855 1.0792.497.4709.8763 1.0399 1.138 1.7069.2746.6671.412 1.4062.412 2.2172 0 .7979-.1308 1.5304-.3924 2.1974-.2616.6541-.641 1.2231-1.138 1.707-.484.4709-1.0791.8372-1.7855 1.0988-.7063.2616-1.5042.3924-2.3937.3924-.8894 0-1.6873-.1308-2.3937-.3924-.7063-.2616-1.308-.6279-1.805-1.0988-.484-.4839-.8568-1.0529-1.1184-1.707-.2616-.667-.3924-1.3995-.3924-2.1974 0-.811.1308-1.5501.3924-2.2172.2616-.667.6409-1.236 1.138-1.7069.497-.4709 1.0987-.8306 1.8051-1.0792.7063-.2616 1.4977-.3924 2.374-.3924zm2.9039 5.3957c0-1.0203-.2551-1.8117-.7652-2.3741-.4971-.5755-1.21-.8633-2.1387-.8633-.9156 0-1.6285.2812-2.1386.8437-.5101.5493-.7652 1.3472-.7652 2.3937 0 1.0202.2485 1.8181.7456 2.3937.5101.5624 1.2295.8436 2.1582.8436.9157 0 1.6285-.2747 2.1387-.824.5101-.5625.7652-1.3669.7652-2.4133zm3.4677 7.2399v-4.1988h1.5893c.1439 0 .2747-.0261.3924-.0785.1308-.0654.2485-.1831.3531-.3531.1047-.1831.1832-.4317.2355-.7456.0654-.3139.0981-.726.0981-1.2361v-5.8273h9.045v8.2406h1.2361v4.1988h-2.2956v-2.0405h-8.3583v2.0405zm4.8855-4.1988h4.0418v-6.0823h-3.4532v3.669c0 1.2426-.1962 2.0471-.5886 2.4133zm22.0777 1.9228c-.2092.1439-.5035.2486-.8829.314-.3793.0784-.7455.1177-1.0987.1177-.4055 0-.7848-.0589-1.138-.1766-.3401-.1177-.6475-.2812-.9222-.4905-.2746-.2093-.5036-.4513-.6867-.726s-.3074-.569-.3728-.8829c-.2093.3139-.4578.6082-.7455.8829-.2747.2747-.5821.5167-.9222.726s-.7063.3728-1.0987.4905c-.3794.1177-.7783.1766-1.1969.1766-1.0726 0-1.9163-.2682-2.531-.8045-.6148-.5362-.9222-1.2295-.9222-2.0797 0-.5886.1635-1.0988.4905-1.5304.327-.4447.8045-.7979 1.4323-1.0595.6279-.2616 1.3931-.4251 2.2956-.4905.9156-.0654 1.962-.0131 3.1393.1569v-.6671c0-.8371-.1897-1.4388-.569-1.805-.3663-.3663-.9156-.5494-1.6481-.5494-.7849 0-1.4847.2093-2.0994.6278-.6148.4186-1.1315 1.0988-1.55 2.0406l-1.8247-1.6678c.497-.9156 1.223-1.635 2.1778-2.1582.968-.5363 2.0798-.8045 3.3355-.8045 1.5566 0 2.7796.3728 3.669 1.1184.9026.7456 1.3538 1.7985 1.3538 3.1589v3.7279c0 .4839.2224.7259.6671.7259.2747 0 .5298-.0588.7652-.1765.2355-.1178.4186-.2486.5494-.3925zm-8.0247-1.5107c1.0595-.0131 2.0144-.6279 2.8646-1.8444v-.6278c-1.622-.157-2.7861-.1112-3.4925.1373-.7063.2486-1.0595.641-1.0595 1.1773 0 .3793.1439.6736.4317.8829.2877.1962.7063.2877 1.2557.2747zm20.828-3.3159c.811.0916 1.465.2289 1.962.412.51.1832.916.399 1.217.6475.314.2485.549.5232.706.8241.157.3008.288.6213.393.9614.104.3401.202.6998.294 1.0791.105.3662.248.7456.432 1.138h-2.845c-.053-.1439-.105-.3467-.157-.6083-.04-.2746-.105-.5624-.197-.8633-.078-.3139-.189-.6278-.333-.9417-.131-.327-.314-.6214-.55-.883-.222-.2616-.503-.4708-.843-.6278-.3272-.1701-.7327-.2551-1.2167-.2551h-.981v4.1792h-2.8057v-4.1792h-.981c-.484 0-.896.085-1.2361.2551-.327.157-.6083.3662-.8437.6278-.2224.2616-.4055.556-.5494.883-.1308.3139-.242.6278-.3335.9417-.0785.3009-.1439.5887-.1962.8633-.0393.2616-.0851.4644-.1374.6083h-2.8449c.1831-.3924.3204-.7718.412-1.138.1046-.3793.2093-.739.3139-1.0791.1047-.3401.2355-.6606.3924-.9614.157-.3009.3859-.5756.6867-.8241.314-.2485.726-.4643 1.2361-.6475.5102-.1831 1.1707-.3204 1.9817-.412v-.0981c-.7194-.0785-1.2753-.2158-1.6677-.412-.3794-.2093-.6671-.4382-.8633-.6867-.1832-.2616-.314-.5233-.3924-.7849-.0655-.2616-.1505-.4839-.2551-.6671-.1047-.1962-.2616-.3335-.4709-.412-.2093-.0915-.5428-.085-1.0006.0196v-2.2956c.7194-.0784 1.308-.0784 1.7658 0 .4709.0785.8502.2093 1.138.3925.2877.1831.5101.4054.6671.667.1569.2486.2877.5167.3924.8045.1046.2747.2027.5559.2943.8437.0915.2746.2158.5232.3728.7455.17.2093.3858.3859.6474.5298.2747.1308.641.1962 1.0988.1962h.3728v-4.1792h2.8057v4.1792h.3728c.6148 0 1.066-.1177 1.3538-.3532.2881-.2354.5031-.5232.6471-.8633.157-.3401.295-.7063.412-1.0987.118-.3924.308-.7391.569-1.0399.275-.3139.667-.5559 1.178-.726.523-.17 1.262-.2027 2.217-.0981v2.2956c-.458-.1046-.792-.1111-1.001-.0196-.209.0785-.366.2158-.471.412-.104.1832-.196.4055-.274.6671-.066.2616-.197.5233-.393.7849-.183.2485-.464.4774-.844.6867-.379.1962-.928.3335-1.648.412z" fill="#fff"/></g></svg>