<svg fill="none" height="660" viewBox="0 0 766 660" width="766" xmlns="http://www.w3.org/2000/svg" xmlns:xlink="http://www.w3.org/1999/xlink"><filter id="a" color-interpolation-filters="sRGB" filterUnits="userSpaceOnUse" height="699" width="852" x="-19.25" y="-19.5"><feFlood flood-opacity="0" result="BackgroundImageFix"/><feGaussianBlur in="BackgroundImage" stdDeviation="10"/><feComposite in2="SourceAlpha" operator="in" result="effect1_backgroundBlur"/><feBlend in="SourceGraphic" in2="effect1_backgroundBlur" mode="normal" result="shape"/></filter><linearGradient id="b" gradientUnits="userSpaceOnUse" x1="406.75" x2="406.75" y1="29.3918" y2="659"><stop offset="0" stop-color="#1a1a1a"/><stop offset="1" stop-opacity="0"/></linearGradient><linearGradient id="c" gradientUnits="userSpaceOnUse" x1="15.4042" x2="15.4042" y1="0" y2="25.6736"><stop offset="0" stop-color="#18a0fb"/><stop offset="1" stop-color="#75c8ff"/></linearGradient><linearGradient id="d" gradientUnits="userSpaceOnUse" x1="406.75" x2="406.75" y1="1" y2="659"><stop offset="0" stop-color="#252525"/><stop offset="1" stop-opacity="0"/></linearGradient><clipPath id="e"><rect height="658" rx="6" width="811" x="1.25" y="1"/></clipPath><clipPath id="f"><path d="m1.25 1h811.25v25.6736h-811.25z"/></clipPath><clipPath id="g"><path d="m350.893 1h112.964v25.6736h-112.964z"/></clipPath><clipPath id="h"><path d="m1.25 168.521h154.042v489.724h-154.042z"/></clipPath><clipPath id="i"><path d="m1.25 168.521h154.042v20.5389h-154.042z"/></clipPath><clipPath id="j"><path d="m1.25 189.059h154.042v20.5389h-154.042z"/></clipPath><clipPath id="k"><path d="m1.25 209.598h154.042v20.5389h-154.042z"/></clipPath><clipPath id="l"><path d="m1.25 250.676h154.042v20.5389h-154.042z"/></clipPath><clipPath id="m"><path d="m1.25 271.215h154.042v20.5389h-154.042z"/></clipPath><clipPath id="n"><path d="m1.25 394.448h154.042v20.5389h-154.042z"/></clipPath><clipPath id="o"><path d="m1.25 497.143h154.042v20.5389h-154.042z"/></clipPath><clipPath id="p"><path d="m1.25 599.837h154.042v20.5389h-154.042z"/></clipPath><clipPath id="q"><path d="m16.6543 414.987h138.637v20.5389h-138.637z"/></clipPath><clipPath id="r"><path d="m16.6543 435.526h138.637v20.5389h-138.637z"/></clipPath><clipPath id="s"><path d="m16.6543 312.292h138.637v20.5389h-138.637z"/></clipPath><clipPath id="t"><path d="m16.6543 332.832h138.637v20.5389h-138.637z"/></clipPath><clipPath id="u"><path d="m1.25 476.604h154.042v20.5389h-154.042z"/></clipPath><clipPath id="v"><path d="m16.6543 517.682h138.637v10.2694h-138.637z"/></clipPath><clipPath id="w"><path d="m16.6543 548.49h138.637v10.2694h-138.637z"/></clipPath><clipPath id="x"><path d="m1.25 52.989h154.042v115.531h-154.042z"/></clipPath><g filter="url(#a)"><g clip-path="url(#e)"><rect fill="url(#b)" height="658" rx="6" width="811" x="1.25" y="1"/><g clip-path="url(#f)"><path d="m0 0h811.25v25.6736h-811.25z" fill="#161616" transform="translate(1.25 1)"/><path d="m0 0h195.119v25.6736h-195.119z" fill="#161616" transform="translate(1.25 1)"/><g clip-rule="evenodd" fill="#fff" fill-opacity=".8" fill-rule="evenodd"><path d="m179.634 16.1004-.152-.3161c-.284-.5884-.443-1.2484-.443-1.9474 0-2.4814 2.011-4.49291 4.493-4.49291 2.481 0 4.493 2.01151 4.493 4.49291 0 2.4813-2.012 4.4929-4.493 4.4929-.709 0-1.378-.1638-1.973-.455l-.172-.0842-.19.0238-2.836.3545 1.089-1.7696zm-2.089 2.1706-.432.7007.817-.1021 3.347-.4183c.68.3332 1.446.5203 2.255.5203 2.836 0 5.134-2.2989 5.134-5.1347 0-2.8359-2.298-5.13475-5.134-5.13475s-5.135 2.29885-5.135 5.13475c0 .7975.182 1.5526.506 2.226z"/><path d="m153.366 8.70215h.321 3.851 3.851.321v.32092 2.24643h-.642v-1.92551h-3.209v8.98571h1.926v.6419h-2.247-2.246v-.6419h1.925v-8.98571h-3.209v1.92551h-.642v-2.24643z"/><path d="m132.905 11.0388-.007-.0021-4.279-1.22001 3.151 3.15131c.126-.0601.267-.0939.416-.0939.531 0 .962.4311.962.9628s-.431.9628-.962.9628c-.532 0-.963-.4311-.963-.9628 0-.1486.033-.2893.094-.4149l-3.148-3.1473 1.176 4.1018.007.0234.005.0238c.271 1.3139 1.435 2.3014 2.829 2.3014.317 0 .621-.0509.905-.1446l.376-.1239.279.2795 1.186 1.1855 1.361-1.3616-1.197-1.1971-.276-.2762.118-.3724c.088-.2759.136-.5705.136-.8774 0-1.3433-.918-2.4739-2.161-2.7962zm3.842 5.0674.454.4538-.454.4539-1.362 1.3615-.453.4539-.454-.4539-1.186-1.1854c-.348.1148-.72.177-1.106.177-1.705 0-3.127-1.2076-3.458-2.8137l-1.469-5.12432-.208-.72683.727.20732 5.296 1.50993c1.519.3938 2.642 1.7746 2.642 3.4175 0 .3738-.058.734-.166 1.0722z"/><path d="m97.5256 9.34399h8.9854v8.98581h-8.9854zm-.6418-.64184h.6418 8.9854.642v.64184 8.98581.6418h-.642-8.9854-.6418v-.6418-8.98581zm17.6342 4.79785.227-.2269-.454-.4538-.227.2269-1.134 1.1346-1.135-1.1346-.227-.2269-.454.4538.227.2269 1.362 1.3616.227.2269.226-.2269z"/><path d="m68.0008 17.0461v1.9255h.6418v-1.9255h5.1348v1.9255h.6418v-1.9255h1.9254v-.6418h-1.9254v-5.1348h1.9254v-.6418h-1.9254v-1.92555h-.6418v1.92555h-5.1348v-1.92555h-.6418v1.92555h-1.9256v.6418h1.9256v5.1348h-1.9256v.6418zm5.7766-5.7766v5.1348h-5.1348v-5.1348zm9.9322 2.2305.2269-.2269-.4538-.4538-.2269.2269-1.1347 1.1346-1.1346-1.1346-.2269-.2269-.4539.4538.227.2269 1.3615 1.3616.2269.2269.227-.2269z"/></g><path d="m0 0h30.8083v25.6736h-30.8083z" fill="url(#c)" transform="translate(26.9238 1)"/><path clip-rule="evenodd" d="m36.9648 9.39063-.6289-.38013.1485.71963 1.7219 8.34397.156.7557.4259-.6435 1.9502-2.9463 3.3499-.9092.7237-.1964-.6417-.3879zm1.7141 7.79787-1.4174-6.8685 5.935 3.5878-2.743.7444-.1168.0317-.0667.1009zm12.939-3.6884.2269-.2269-.4539-.4539-.2269.227-1.1346 1.1346-1.1346-1.1346-.227-.227-.4538.4539.2269.2269 1.3616 1.3616.2269.2269.2269-.2269z" fill="#fff" fill-rule="evenodd"/><path clip-rule="evenodd" d="m18.5797 10.3066h-8.98581v.6419h8.98581zm-8.98595 3.2093h8.98575v.6419h-8.98575zm0 3.2092h8.98575v.6418h-8.98575z" fill="#fff" fill-opacity=".8" fill-rule="evenodd"/><path d="m0 0h25.6736v25.6736h-25.6736z" fill="#161616" transform="translate(745.106 1)"/><path clip-rule="evenodd" d="m756.018 10.0488.491.3069 5.134 3.2092.436.2721-.436.2722-5.134 3.2092-.491.3069v-.5791-6.4184zm.641 1.1581v5.2603l4.209-2.6302z" fill="#fff" fill-opacity=".8" fill-rule="evenodd"/><path d="m0 0h41.0778v25.6736h-41.0778z" fill="#161616" transform="translate(704.028 1)"/><rect fill="#18a0fb" height="19.2552" rx="3.85104" width="34.6594" x="707.237" y="4.20947"/><path d="m717.992 12.4236h.747c-.022-.8223-.749-1.4191-1.792-1.4191-1.031 0-1.821.5892-1.821 1.4743 0 .7145.512 1.1332 1.337 1.3564l.606.1654c.55.1455.973.326.973.7823 0 .5014-.479.8324-1.138.8324-.597 0-1.093-.2658-1.138-.8249h-.777c.05.9302.769 1.5043 1.92 1.5043 1.206 0 1.9-.6343 1.9-1.5043 0-.9251-.824-1.2837-1.476-1.4441l-.502-.1304c-.401-.1028-.935-.2908-.932-.7823 0-.4362.398-.7596 1.03-.7596.589 0 1.008.2758 1.063.7496zm2.503 1.4993c0-.6142.389-.9653.923-.9653.516 0 .825.3285.825.8926v2.3593h.749v-2.4496c0-.9602-.526-1.4516-1.318-1.4516-.6 0-.961.2607-1.141.6769h-.048v-1.9104h-.739v5.1347h.749zm4.689 2.3718c.637 0 .996-.3234 1.138-.6117h.031v.5265h.732v-2.5574c0-1.1207-.883-1.3438-1.495-1.3438-.697 0-1.338.2808-1.589.9828l.704.1605c.111-.2733.391-.5366.895-.5366.484 0 .732.2533.732.6895v.0176c0 .2732-.28.2682-.972.3485-.73.0852-1.477.2757-1.477 1.1508 0 .7571.569 1.1733 1.301 1.1733zm.163-.6017c-.424 0-.729-.1906-.729-.5616 0-.4012.356-.5441.789-.6017.244-.0326.82-.0978.928-.2056v.4964c0 .4563-.364.8725-.988.8725zm2.807.5165h.749v-2.3518c0-.5039.389-.8675.921-.8675.155 0 .33.0276.391.0452v-.7171c-.076-.01-.224-.0175-.319-.0175-.451 0-.837.2557-.978.6694h-.04v-.6118h-.724zm4.302.0777c.84 0 1.434-.4137 1.604-1.0405l-.709-.1279c-.135.3636-.461.5491-.888.5491-.641 0-1.073-.4162-1.093-1.1583h2.738v-.2658c0-1.3915-.832-1.9355-1.705-1.9355-1.073 0-1.78.8173-1.78 2.0007 0 1.196.697 1.9782 1.833 1.9782zm-1.083-2.3392c.03-.5466.426-1.0204 1.035-1.0204.582 0 .963.4312.965 1.0204z" fill="#fff"/><g clip-path="url(#g)"><path d="m0 0h112.964v25.6736h-112.964z" fill="#161616" transform="translate(350.893 1)"/><g clip-rule="evenodd" fill="#fff" fill-rule="evenodd"><path d="m357.82 13.5163.227-.2269 5.135-5.13474.227-.22693.227.22693 5.135 5.13474.226.2269-.453.4539-.227-.227-4.908-4.90777-4.681 4.68087 4.681 4.6809 2.34-2.3405.227-.2269.454.4539-.227.2269-2.567 2.5674-.227.2269-.227-.2269-5.135-5.1348zm5.08-.321h1.472v.6419h-1.472l1.057 1.0567-.454.4539-1.605-1.6046-.227-.2269.227-.227 1.605-1.6046.454.4539zm5.323 3.8511c0 1.0634-.431 2.0261-1.128 2.723l-.454-.4538c.581-.5808.94-1.3831.94-2.2692 0-1.7724-1.437-3.2092-3.209-3.2092v-.6419c2.127.0001 3.851 1.7242 3.851 3.8511z" opacity=".8"/><path d="m388.292 11.3622-.454-.4539.454-.4538 1.62-1.61955.454-.45385.453.45385 1.62 1.61955.454.4538-.454.4539-1.62 1.6195-.453.4539-.454-.4539zm2.074 1.1657 1.619-1.6196-1.619-1.6195-1.62 1.6195zm-2.074 5.3327-.454-.4539.454-.4538 1.62-1.6196.454-.4538.453.4538 1.62 1.6196.454.4538-.454.4539-1.62 1.6195-.453.4539-.454-.4539zm2.074 1.1657 1.619-1.6196-1.619-1.6195-1.62 1.6195zm-5.777-4.8688.454.4539 1.619 1.6195.454.4539.454-.4539 1.62-1.6195.453-.4539-.453-.4538-1.62-1.6196-.454-.4538-.454.4538-1.619 1.6196zm4.147 0-1.62 1.6196-1.619-1.6196 1.619-1.6195zm2.805.4539-.454-.4539.454-.4538 1.62-1.6196.454-.4538.454.4538 1.619 1.6196.454.4538-.454.4539-1.619 1.6195-.454.4539-.454-.4539zm2.074 1.1657 1.619-1.6196-1.619-1.6195-1.62 1.6195zm8.93-2.2773.226-.2269-.453-.4539-.227.2269-1.135 1.1347-1.135-1.1347-.226-.2269-.454.4539.227.2269 1.361 1.3615.227.227.227-.227z" opacity=".8"/><path d="m424.705 13.8369c0 2.4813-2.011 4.4929-4.493 4.4929-.504 0-.989-.0832-1.442-.2366 1.264-.9353 2.084-2.4372 2.084-4.1305 0-1.7963-.923-3.3772-2.32-4.29481.519-.20891 1.085-.3239 1.678-.3239 2.482 0 4.493 2.01151 4.493 4.49291zm-6.868-4.55325c.71-.37145 1.518-.5815 2.375-.5815 2.836 0 5.135 2.29885 5.135 5.13475 0 2.8358-2.299 5.1347-5.135 5.1347-.755 0-1.472-.163-2.117-.4556 0 0-.001.0001-.001.0001-1.779-.8065-3.017-2.5983-3.017-4.6791 0-1.9788 1.119-3.6961 2.759-4.55341 0 .00002 0 .00004.001.00006z" opacity=".8"/><path d="m441.392 8.70215h7.06v3.20945h3.209v7.0602h-7.06v-3.2094h-3.209zm17.634 4.79785.227-.2269-.454-.4538-.227.2269-1.134 1.1346-1.135-1.1346-.227-.2269-.454.4538.227.2269 1.362 1.3616.227.2269.226-.2269z" opacity=".8"/></g></g></g><path d="m0 0h154.042v631.571h-154.042z" fill="#2c2c2c" transform="translate(1.25 26.6736)"/><g clip-path="url(#h)"><path d="m0 0h154.042v489.724h-154.042z" fill="#161616" transform="translate(1.25 168.521)"/><g clip-path="url(#i)"><path d="m0 0h154.042v20.5389h-154.042z" fill="#161616" transform="translate(1.25 168.521)"/><path d="m27.4303 181.521h.9301v-2.182h2.1337v-.779h-2.1337v-1.394h2.3593v-.78h-3.2894zm4.0769 0h.9076v-2.264c0-.489.3685-.835.8675-.835.1529 0 .3434.027.4212.052v-.835c-.0828-.015-.2257-.025-.326-.025-.4412 0-.8098.251-.9502.697h-.0401v-.642h-.88zm3.8669.077c.6042 0 .9652-.283 1.1307-.607h.0301v.53h.8725v-2.578c0-1.018-.8299-1.324-1.5645-1.324-.8098 0-1.4316.361-1.6322 1.063l.8475.121c.0902-.264.346-.489.7897-.489.4212 0 .6519.215.6519.594v.015c0 .261-.2733.273-.9527.346-.7472.08-1.4617.303-1.4617 1.171 0 .757.5541 1.158 1.2887 1.158zm.2357-.667c-.3786 0-.6494-.173-.6494-.506 0-.349.3034-.494.7095-.552.2382-.032.7146-.092.8324-.188v.454c0 .429-.346.792-.8925.792zm2.7455.59h.9076v-2.342c0-.474.3159-.795.7071-.795.3836 0 .6468.258.6468.654v2.483h.8901v-2.402c0-.434.2582-.735.697-.735.366 0 .6568.216.6568.692v2.445h.9102v-2.585c0-.86-.4965-1.317-1.2035-1.317-.5591 0-.9853.276-1.1558.705h-.0401c-.1479-.436-.5215-.705-1.0405-.705-.5165 0-.9026.266-1.0631.705h-.0451v-.655h-.8675zm8.0765.075c.8976 0 1.5143-.439 1.6748-1.108l-.8474-.096c-.1229.326-.4237.497-.8149.497-.5866 0-.9753-.386-.9828-1.046h2.6827v-.278c0-1.351-.8123-1.946-1.76-1.946-1.1032 0-1.8228.81-1.8228 1.999 0 1.208.7096 1.978 1.8704 1.978zm-.9678-2.365c.0276-.491.3912-.905.9327-.905.5215 0 .8725.381.8775.905zm7.3484-2.845h-.8851l-1.2761.82v.852l1.2009-.767h.0301v4.23h.9302z" fill="#fff" fill-opacity=".9"/><path clip-rule="evenodd" d="m15.3705 175.26v.321 1.283h2.5673v-1.283-.321h.6418v.321 1.283h1.2837.321v.642h-.321-1.2837v2.568h1.2837.321v.641h-.321-1.2837v1.284.321h-.6418v-.321-1.284h-2.5673v1.284.321h-.6419v-.321-1.284h-1.2837-.3209v-.641h.3209 1.2837v-2.568h-1.2837-.3209v-.642h.3209 1.2837v-1.283-.321zm2.5673 4.814v-2.568h-2.5673v2.568z" fill="#fff" fill-opacity=".9" fill-rule="evenodd"/><path d="m8.31052 178.79-2.56736-1.926v3.851z" fill="#000" fill-opacity=".3"/></g><g clip-path="url(#j)"><path d="m0 0h154.042v20.5389h-154.042z" fill="#161616" transform="translate(1.25 189.059)"/><path d="m27.2046 197.704h1.5871v4.355h.9226v-4.355h1.5871v-.779h-4.0968zm6.0031 4.431c1.1282 0 1.8453-.795 1.8453-1.986 0-1.194-.7171-1.991-1.8453-1.991-1.1283 0-1.8453.797-1.8453 1.991 0 1.191.717 1.986 1.8453 1.986zm.005-.728c-.6243 0-.9302-.556-.9302-1.261 0-.704.3059-1.268.9302-1.268.6142 0 .9201.564.9201 1.268 0 .705-.3059 1.261-.9201 1.261zm2.6459 2.096h.9076v-2.05h.0376c.1429.28.4413.674 1.1032.674.9076 0 1.587-.72 1.587-1.988 0-1.284-.6995-1.981-1.5895-1.981-.6795 0-.9628.409-1.1007.687h-.0526v-.637h-.8926zm.89-3.369c0-.747.321-1.231.9051-1.231.6043 0 .9152.514.9152 1.231 0 .722-.3159 1.248-.9152 1.248-.5791 0-.9051-.501-.9051-1.248zm5.8921-.587h-2.3116v.747h2.3116zm1.8976-2.622h-.9076v5.134h.9076zm2.6734 5.21c.8976 0 1.5144-.439 1.6748-1.109l-.8474-.095c-.1228.326-.4237.497-.8148.497-.5867 0-.9753-.387-.9828-1.046h2.6827v-.278c0-1.352-.8124-1.946-1.7601-1.946-1.1032 0-1.8227.81-1.8227 1.998 0 1.209.7095 1.979 1.8703 1.979zm-.9677-2.365c.0275-.491.3911-.905.9326-.905.5215 0 .8725.381.8776.905zm6.8128-1.562h-.9652l-.8876 2.861h-.0401l-.885-2.861h-.9678l1.3714 3.851h1.0029zm2.2373 3.927c.8975 0 1.5143-.439 1.6748-1.109l-.8475-.095c-.1228.326-.4237.497-.8148.497-.5867 0-.9753-.387-.9828-1.046h2.6827v-.278c0-1.352-.8124-1.946-1.7601-1.946-1.1031 0-1.8227.81-1.8227 1.998 0 1.209.7095 1.979 1.8704 1.979zm-.9678-2.365c.0276-.491.3911-.905.9327-.905.5215 0 .8725.381.8775.905zm4.3909-2.845h-.9076v5.134h.9076zm4.7058 1.283h-.7998v-.303c0-.301.1253-.469.4638-.469.1429 0 .2633.033.3385.055l.183-.702c-.1178-.04-.3761-.105-.6895-.105-.6694 0-1.2034.384-1.2034 1.161v.363h-.5692v.702h.5692v3.149h.9076v-3.149h.7998zm.7461 3.851h.9076v-2.264c0-.489.3685-.835.8675-.835.1529 0 .3434.028.4212.053v-.835c-.0828-.015-.2257-.025-.326-.025-.4412 0-.8098.251-.9502.697h-.0401v-.642h-.88zm3.8669.078c.6042 0 .9652-.283 1.1307-.607h.0301v.529h.8725v-2.577c0-1.018-.8299-1.324-1.5645-1.324-.8098 0-1.4316.361-1.6322 1.063l.8475.121c.0902-.264.346-.489.7897-.489.4212 0 .6519.215.6519.594v.015c0 .261-.2733.273-.9527.346-.7472.08-1.4617.303-1.4617 1.171 0 .757.5541 1.158 1.2887 1.158zm.2356-.667c-.3785 0-.6493-.173-.6493-.506 0-.349.3034-.494.7095-.552.2382-.032.7146-.093.8324-.188v.454c0 .429-.346.792-.8926.792zm2.7456.589h.9076v-2.341c0-.474.3159-.795.707-.795.3836 0 .6469.258.6469.654v2.482h.8901v-2.402c0-.433.2582-.734.697-.734.366 0 .6568.215.6568.692v2.444h.9101v-2.585c0-.86-.4964-1.316-1.2034-1.316-.5591 0-.9853.276-1.1558.705h-.0401c-.148-.437-.5215-.705-1.0405-.705-.5165 0-.9026.266-1.0631.705h-.0451v-.655h-.8675zm8.0765.076c.8976 0 1.5143-.439 1.6748-1.109l-.8474-.095c-.1229.326-.4237.497-.8149.497-.5866 0-.9753-.387-.9828-1.046h2.6827v-.278c0-1.352-.8123-1.946-1.76-1.946-1.1032 0-1.8228.81-1.8228 1.998 0 1.209.7096 1.979 1.8704 1.979zm-.9678-2.365c.0276-.491.3911-.905.9327-.905.5215 0 .8725.381.8775.905z" fill="#fff" fill-opacity=".9"/><path clip-rule="evenodd" d="m15.3707 195.799v.321 1.283h2.5673v-1.283-.321h.6419v.321 1.283h1.2834.321v.642h-.321-1.2834v2.568h1.2834.321v.641h-.321-1.2834v1.284.321h-.6419v-.321-1.284h-2.5673v1.284.321h-.6419v-.321-1.284h-1.2839-.3209v-.641h.3209 1.2839v-2.568h-1.2839-.3209v-.642h.3209 1.2839v-1.283-.321zm2.5673 4.814v-2.568h-2.5673v2.568z" fill="#fff" fill-opacity=".9" fill-rule="evenodd"/><path d="m8.31052 199.329-2.56736-1.926v3.851z" fill="#000" fill-opacity=".3"/></g><g clip-path="url(#k)"><path d="m0 0h154.042v20.5389h-154.042z" fill="#161616" transform="translate(1.25 209.598)"/><g fill="#fff" fill-opacity=".9"><path d="m27.5456 222.598h.6218v-2.296h2.7378v2.296h.6218v-5.135h-.6218v2.287h-2.7378v-2.287h-.6218zm6.7959.08c.7823 0 1.3539-.391 1.5344-.972l-.5716-.161c-.1504.401-.4989.602-.9628.602-.6944 0-1.1733-.449-1.2009-1.274h2.7955v-.251c0-1.434-.8524-1.925-1.6547-1.925-1.043 0-1.735.822-1.735 2.006 0 1.183.682 1.975 1.7951 1.975zm-1.2009-2.316c.0401-.599.4638-1.134 1.1408-1.134.6418 0 1.053.482 1.053 1.134zm4.3226-2.899h-.5917v5.135h.5917zm1.7107 0h-.5917v5.135h.5917zm2.6835 5.215c1.043 0 1.745-.792 1.745-1.985 0-1.204-.702-1.996-1.745-1.996-1.0429 0-1.745.792-1.745 1.996 0 1.193.7021 1.985 1.745 1.985zm0-.531c-.7922 0-1.1533-.682-1.1533-1.454 0-.773.3611-1.465 1.1533-1.465.7923 0 1.1533.692 1.1533 1.465 0 .772-.361 1.454-1.1533 1.454z"/><path clip-rule="evenodd" d="m13.4453 216.659h.3209 2.8883 2.8883.3209v.321 1.604h-.6418v-1.283h-2.2465v5.134h.9628v.642h-1.2837-1.2837v-.642h.9628v-5.134h-2.2464v1.283h-.6419v-1.604z" fill-rule="evenodd"/></g></g><path d="m0 0h154.042v20.5389h-154.042z" fill="#161616" transform="translate(1.25 230.137)"/><g fill="#fff" fill-opacity=".9"><path d="m27.5456 243.137h3.0086v-.552h-2.3868v-4.583h-.6218zm5.0597.09c.6719 0 1.0229-.361 1.1433-.612h.0301v.522h.5917v-2.537c0-1.224-.9327-1.364-1.4241-1.364-.5817 0-1.2436.2-1.5444.902l.5616.201c.1304-.281.4387-.582 1.0029-.582.544 0 .8123.289.8123.783v.02c0 .285-.2909.26-.9929.351-.7145.092-1.4942.25-1.4942 1.133 0 .752.5816 1.183 1.3137 1.183zm.0903-.531c-.4714 0-.8124-.211-.8124-.622 0-.451.4112-.592.8725-.652.2508-.03.9227-.1 1.023-.221v.542c0 .481-.3811.953-1.0831.953zm2.8703.441h.5716v-.592h.0702c.1304.211.3811.672 1.1232.672.9628 0 1.6347-.772 1.6347-1.996 0-1.213-.6719-1.985-1.6447-1.985-.7521 0-.9828.461-1.1132.662h-.0501v-1.896h-.5917zm.5816-1.926c0-.862.3811-1.444 1.1032-1.444.7522 0 1.1232.632 1.1232 1.444 0 .823-.3811 1.475-1.1232 1.475-.712 0-1.1032-.602-1.1032-1.475zm5.3732 2.006c.7822 0 1.3538-.391 1.5344-.973l-.5717-.16c-.1504.401-.4989.602-.9627.602-.6945 0-1.1734-.449-1.201-1.274h2.7955v-.251c0-1.434-.8524-1.925-1.6547-1.925-1.043 0-1.735.822-1.735 2.006 0 1.183.682 1.975 1.7952 1.975zm-1.201-2.316c.0401-.6.4638-1.134 1.1408-1.134.6418 0 1.053.482 1.053 1.134zm4.3226-2.899h-.5917v5.135h.5917zm3.8469 2.146c-.1856-.546-.6018-.912-1.364-.912-.8123 0-1.414.461-1.414 1.113 0 .531.3159.888 1.0229 1.053l.6419.15c.3886.091.5716.276.5716.542 0 .331-.351.602-.9026.602-.4839 0-.7872-.208-.8925-.622l-.5617.14c.1379.655.677 1.003 1.4642 1.003.8951 0 1.5044-.489 1.5044-1.153 0-.537-.336-.875-1.023-1.043l-.5716-.141c-.4563-.112-.6619-.265-.6619-.561 0-.331.351-.572.8223-.572.5165 0 .7296.286.8324.552z"/><path clip-rule="evenodd" d="m17.2963 237.198h-1.2836v.641h1.2836zm1.6046 5.776h.321v-.321h.6418v.321.642h-.6418-.321zm-4.8137-3.209v1.283h-.6419v-1.283zm5.1347-1.605v-.321h-.321v-.641h.321.6418v.641.321zm0 1.605v1.283h.6418v-1.283zm-5.1347-1.605v-.321h.3209v-.641h-.3209-.6419v.641.321zm-.6419 4.814v-.321h.6419v.321h.3209v.642h-.3209-.6419zm3.851 0h-1.2836v.642h1.2836z" fill-rule="evenodd"/><path d="m8.31052 240.406-2.56736-1.925v3.851z"/></g><g clip-path="url(#l)"><path d="m0 0h154.042v20.5389h-154.042z" fill="#161616" transform="translate(1.25 250.676)"/><path d="m8.31052 260.945-2.56736-1.925v3.851z" fill="#000" fill-opacity=".3"/><g fill="#20a3fb"><path d="m27.4303 263.676h2.0784c1.1759 0 1.7526-.599 1.7526-1.399 0-.777-.5516-1.234-1.0982-1.261v-.05c.5015-.118.8976-.469.8976-1.093 0-.765-.5516-1.332-1.6648-1.332h-1.9656zm.9301-.777v-1.505h1.0255c.5741 0 .9302.351.9302.81 0 .409-.2809.695-.9553.695zm0-2.174v-1.416h.9402c.5466 0 .8299.288.8299.684 0 .451-.366.732-.8499.732zm6.1598 1.331c0 .587-.4187.878-.8199.878-.4362 0-.7271-.308-.7271-.797v-2.312h-.9076v2.452c0 .925.5266 1.449 1.2837 1.449.5767 0 .9828-.303 1.1583-.734h.0402v.684h.88v-3.851h-.9076zm3.7992-2.231h-.7597v-.923h-.9076v.923h-.5465v.702h.5465v2.141c-.005.725.5215 1.081 1.2035 1.061.2582-.008.4362-.058.534-.091l-.1529-.709c-.0502.012-.153.035-.2658.035-.2282 0-.4112-.08-.4112-.446v-1.991h.7597zm2.7174 0h-.7597v-.923h-.9076v.923h-.5466v.702h.5466v2.141c-.005.725.5215 1.081 1.2034 1.061.2583-.008.4363-.058.5341-.091l-.153-.709c-.0501.012-.1529.035-.2657.035-.2282 0-.4112-.08-.4112-.446v-1.991h.7597zm2.4328 3.926c1.1282 0 1.8453-.795 1.8453-1.985 0-1.194-.7171-1.991-1.8453-1.991-1.1283 0-1.8453.797-1.8453 1.991 0 1.19.717 1.985 1.8453 1.985zm.005-.727c-.6243 0-.9302-.556-.9302-1.261 0-.704.3059-1.269.9302-1.269.6142 0 .9201.565.9201 1.269 0 .705-.3059 1.261-.9201 1.261zm3.5535-1.604c0-.557.336-.878.8148-.878.4689 0 .7497.308.7497.822v2.312h.9076v-2.452c.0025-.923-.524-1.449-1.3188-1.449-.5767 0-.9728.276-1.1483.704h-.0451v-.654h-.8675v3.851h.9076zm7.3126-3.119h-.7948l-1.6547 6.147h.7948zm3.5092 5.453c.6043 0 .9653-.284 1.1308-.607h.03v.529h.8725v-2.577c0-1.018-.8298-1.324-1.5644-1.324-.8099 0-1.4316.361-1.6322 1.063l.8474.12c.0903-.263.346-.489.7898-.489.4212 0 .6518.216.6518.595v.015c0 .26-.2732.273-.9527.346-.7471.08-1.4617.303-1.4617 1.17 0 .758.5541 1.159 1.2887 1.159zm.2357-.667c-.3786 0-.6494-.173-.6494-.507 0-.348.3034-.494.7096-.551.2381-.033.7145-.093.8324-.188v.454c0 .428-.346.792-.8926.792zm4.4254.664c.9678 0 1.5845-.574 1.6497-1.391h-.8675c-.0777.413-.3761.652-.7747.652-.5666 0-.9327-.474-.9327-1.261 0-.778.3736-1.244.9327-1.244.4363 0 .7045.281.7747.652h.8675c-.0627-.835-.7145-1.384-1.6547-1.384-1.1283 0-1.8403.815-1.8403 1.991 0 1.165.6945 1.985 1.8453 1.985zm4.3533-3.926h-.7597v-.923h-.9076v.923h-.5466v.702h.5466v2.141c-.005.725.5215 1.081 1.2035 1.061.2582-.008.4362-.058.534-.091l-.1529-.709c-.0502.012-.153.035-.2658.035-.2282 0-.4112-.08-.4112-.446v-1.991h.7597zm.7943 3.851h.9076v-3.851h-.9076zm.4563-4.398c.2884 0 .5241-.22.5241-.491 0-.273-.2357-.494-.5241-.494-.2908 0-.5265.221-.5265.494 0 .271.2357.491.5265.491zm4.8598.547h-.9653l-.8875 2.861h-.0401l-.8851-2.861h-.9677l1.3714 3.851h1.0029zm2.2372 3.926c.8976 0 1.5144-.439 1.6748-1.108l-.8474-.095c-.1228.326-.4237.496-.8148.496-.5867 0-.9753-.386-.9828-1.045h2.6827v-.279c0-1.351-.8124-1.945-1.7601-1.945-1.1032 0-1.8227.81-1.8227 1.998 0 1.209.7095 1.978 1.8703 1.978zm-.9677-2.364c.0276-.491.3911-.905.9326-.905.5215 0 .8725.381.8776.905z"/><path clip-rule="evenodd" d="m15.2049 258.858 1.4488-1.442 1.4488 1.442-1.4488 1.443zm-.6381 3.536-1.4428-1.449 1.4428-1.448 1.4429 1.448zm3.5357.639-1.4488 1.443-1.4488-1.443 1.4488-1.443zm2.0815-2.088-1.4428-1.448-1.4428 1.448 1.4428 1.449z" fill-rule="evenodd"/></g></g><path d="m0 0h138.637v20.5389h-138.637z" fill="#161616" transform="translate(16.6543 291.754)"/><path d="m18.5791 302.023-2.5674-1.925v3.851z" fill="#000" fill-opacity=".3"/><path d="m42.9499 304.754h1.8553c1.2135 0 1.7149-.592 1.7149-1.364 0-.813-.5616-1.254-1.0329-1.284v-.05c.4412-.12.8324-.411.8324-1.073 0-.752-.5015-1.364-1.5745-1.364h-1.7952zm.6218-.552v-1.785h1.2636c.6719 0 1.0931.451 1.0931.973 0 .451-.3108.812-1.1232.812zm0-2.327v-1.704h1.1734c.6819 0 .9828.361.9828.812 0 .541-.4413.892-1.0029.892zm6.3522 1.304c0 .722-.5516 1.053-.9929 1.053-.4914 0-.8424-.361-.8424-.922v-2.407h-.5917v2.447c0 .982.5215 1.454 1.2436 1.454.5816 0 .9627-.311 1.1432-.702h.0402v.652h.5916v-3.851h-.5916zm3.3855-2.276h-.8224v-.923h-.5917v.923h-.5816v.501h.5816v2.407c0 .672.5416.993 1.043.993.2207 0 .3611-.04.4413-.07l-.1204-.532c-.0501.01-.1303.03-.2607.03-.2608 0-.5115-.08-.5115-.582v-2.246h.8224zm2.6001 0h-.8223v-.923h-.5917v.923h-.5817v.501h.5817v2.407c0 .672.5415.993 1.043.993.2206 0 .361-.04.4412-.07l-.1203-.532c-.0501.01-.1304.03-.2608.03-.2607 0-.5114-.08-.5114-.582v-2.246h.8223zm2.4485 3.931c1.043 0 1.745-.792 1.745-1.986 0-1.203-.702-1.996-1.745-1.996s-1.745.793-1.745 1.996c0 1.194.702 1.986 1.745 1.986zm0-.532c-.7923 0-1.1533-.682-1.1533-1.454s.361-1.464 1.1533-1.464 1.1533.692 1.1533 1.464-.361 1.454-1.1533 1.454zm3.2752-1.865c0-.672.4162-1.053.9828-1.053.5491 0 .8826.359.8826.963v2.407h.5917v-2.447c0-.983-.524-1.455-1.3038-1.455-.5816 0-.9427.261-1.1232.652h-.0501v-.601h-.5717v3.851h.5917zm7.4098-3.059h-.5416l-1.6547 6.148h.5415zm3.8909 5.466c.6719 0 1.023-.361 1.1433-.612h.0301v.522h.5917v-2.538c0-1.223-.9327-1.364-1.4241-1.364-.5817 0-1.2436.201-1.5444.903l.5616.201c.1304-.281.4387-.582 1.0029-.582.544 0 .8123.288.8123.782v.02c0 .286-.2908.261-.9929.351-.7145.093-1.4942.251-1.4942 1.134 0 .752.5816 1.183 1.3137 1.183zm.0903-.532c-.4714 0-.8123-.21-.8123-.621 0-.452.4111-.592.8725-.652.2507-.03.9226-.101 1.0229-.221v.542c0 .481-.3811.952-1.0831.952zm4.3545.522c.8525 0 1.4141-.522 1.5144-1.204h-.5917c-.1103.422-.4613.672-.9227.672-.702 0-1.1533-.581-1.1533-1.474 0-.872.4614-1.444 1.1533-1.444.5215 0 .8324.321.9227.672h.5917c-.1003-.722-.7121-1.204-1.5244-1.204-1.043 0-1.735.823-1.735 1.996 0 1.154.6619 1.986 1.745 1.986zm4.0895-3.931h-.8224v-.923h-.5917v.923h-.5817v.501h.5817v2.407c0 .672.5416.993 1.043.993.2206 0 .361-.04.4413-.07l-.1204-.532c-.0501.01-.1304.03-.2607.03-.2608 0-.5115-.08-.5115-.582v-2.246h.8224zm.9253 3.851h.5917v-3.851h-.5917zm.3009-4.493c.2306 0 .4212-.181.4212-.401 0-.221-.1906-.402-.4212-.402-.2307 0-.4212.181-.4212.402 0 .22.1905.401.4212.401zm4.5589.642h-.6419l-1.063 3.068h-.0401l-1.0631-3.068h-.6418l1.4241 3.851h.6017zm2.293 3.931c.7822 0 1.3539-.391 1.5344-.973l-.5716-.16c-.1505.401-.499.601-.9628.601-.6945 0-1.1734-.448-1.2009-1.273h2.7955v-.251c0-1.434-.8525-1.926-1.6548-1.926-1.043 0-1.7349.823-1.7349 2.006 0 1.184.6819 1.976 1.7951 1.976zm-1.2009-2.317c.0401-.599.4638-1.133 1.1407-1.133.6419 0 1.053.481 1.053 1.133z" fill="#20a3fb"/><path clip-rule="evenodd" d="m28.0967 302.023.2156-.215 3.5301-3.53.2156-.216.2155.216 3.5302 3.53.2155.215-.2155.216-3.5302 3.53-.2155.216-.2156-.216-3.5301-3.53zm3.9613 3.099 3.0989-3.099-3.0989-3.099-3.099 3.099z" fill="#20a3fb" fill-rule="evenodd"/><g clip-path="url(#m)"><path d="m0 0h154.042v20.5389h-154.042z" fill="#404040" transform="translate(1.25 271.215)"/><path d="m30.2208 280.492h.895c-.0175-.868-.7571-1.482-1.8503-1.482-1.078 0-1.8879.607-1.8854 1.514 0 .737.524 1.161 1.369 1.379l.5841.151c.5541.14.9202.313.9227.712-.0025.438-.4187.732-1.0255.732-.5816 0-1.0329-.261-1.0705-.8h-.9152c.0377 1.02.7973 1.595 1.9933 1.595 1.231 0 1.9455-.615 1.948-1.52-.0025-.89-.7371-1.296-1.5093-1.479l-.4814-.12c-.4212-.101-.8775-.279-.8725-.707.0025-.387.3485-.67.9302-.67.5541 0 .9201.258.9678.695zm1.7897 3.723h.9076v-3.851h-.9076zm.4563-4.398c.2883 0 .524-.22.524-.491 0-.273-.2357-.494-.524-.494-.2908 0-.5265.221-.5265.494 0 .271.2357.491.5265.491zm3.0947 5.922c1.0405 0 1.8077-.476 1.8077-1.461v-3.914h-.8951v.637h-.0501c-.1379-.279-.4263-.687-1.1057-.687-.8901 0-1.5896.697-1.5896 1.963 0 1.256.6995 1.883 1.5871 1.883.6594 0 .9678-.354 1.1082-.637h.0451v.729c0 .567-.3761.8-.8926.8-.5465 0-.7872-.258-.8975-.484l-.8174.198c.1655.539.7196.973 1.6999.973zm.0075-2.291c-.5992 0-.9151-.467-.9151-1.176 0-.7.3109-1.214.9151-1.214.5842 0 .9051.484.9051 1.214 0 .734-.3259 1.176-.9051 1.176zm3.6732-1.49c0-.556.336-.877.8149-.877.4688 0 .7496.308.7496.822v2.312h.9076v-2.452c.0025-.923-.524-1.449-1.3187-1.449-.5767 0-.9728.275-1.1483.704h-.0452v-.654h-.8675v3.851h.9076zm5.7643-.255h-2.3117v.747h2.3117zm.9899 2.512h.9076v-3.851h-.9076zm.4563-4.398c.2883 0 .524-.22.524-.491 0-.273-.2357-.494-.524-.494-.2908 0-.5265.221-.5265.494 0 .271.2357.491.5265.491zm2.3275 2.141c0-.556.336-.877.8148-.877.4689 0 .7497.308.7497.822v2.312h.9076v-2.452c.0025-.923-.524-1.449-1.3188-1.449-.5767 0-.9728.275-1.1483.704h-.0451v-.654h-.8675v3.851h.9076zm6.6457 2.325c.6619 0 .9602-.394 1.1032-.675h.0551v.607h.8926v-5.135h-.9101v1.921h-.0376c-.1379-.279-.4213-.687-1.1007-.687-.8901 0-1.5896.697-1.5896 1.98 0 1.269.6795 1.989 1.5871 1.989zm.2532-.745c-.5992 0-.9151-.527-.9151-1.249 0-.717.3109-1.231.9151-1.231.5842 0 .9051.484.9051 1.231s-.3259 1.249-.9051 1.249zm2.8001.677h.9076v-3.851h-.9076zm.4563-4.398c.2884 0 .524-.22.524-.491 0-.273-.2356-.494-.524-.494-.2908 0-.5265.221-.5265.494 0 .271.2357.491.5265.491zm2.5281 4.476c.6042 0 .9653-.284 1.1307-.607h.0301v.529h.8725v-2.578c0-1.017-.8298-1.323-1.5645-1.323-.8098 0-1.4316.361-1.6321 1.063l.8474.12c.0903-.263.346-.489.7898-.489.4212 0 .6518.216.6518.594v.015c0 .261-.2733.274-.9527.346-.7471.081-1.4617.304-1.4617 1.171 0 .757.5541 1.159 1.2887 1.159zm.2357-.667c-.3786 0-.6494-.173-.6494-.507 0-.348.3034-.494.7096-.551.2381-.033.7145-.093.8323-.188v.453c0 .429-.346.793-.8925.793zm3.6532-4.546h-.9077v5.135h.9077zm2.6484 5.21c1.1282 0 1.8453-.795 1.8453-1.986 0-1.193-.7171-1.99-1.8453-1.99-1.1283 0-1.8453.797-1.8453 1.99 0 1.191.717 1.986 1.8453 1.986zm.005-.727c-.6243 0-.9302-.557-.9302-1.261 0-.705.3059-1.269.9302-1.269.6142 0 .9201.564.9201 1.269 0 .704-.3059 1.261-.9201 1.261zm4.3207 2.176c1.0405 0 1.8077-.476 1.8077-1.461v-3.914h-.8951v.637h-.0501c-.1379-.279-.4263-.687-1.1057-.687-.8901 0-1.5896.697-1.5896 1.963 0 1.256.6995 1.883 1.5871 1.883.6594 0 .9678-.354 1.1082-.637h.0451v.729c0 .567-.3761.8-.8926.8-.5465 0-.7872-.258-.8975-.484l-.8174.198c.1655.539.7196.973 1.6999.973zm.0075-2.291c-.5992 0-.9151-.467-.9151-1.176 0-.7.3109-1.214.9151-1.214.5842 0 .9051.484.9051 1.214 0 .734-.3259 1.176-.9051 1.176z" fill="#fff" fill-opacity=".9"/><path clip-rule="evenodd" d="m15.3705 277.954v.321 1.284h2.5673v-1.284-.321h.6418v.321 1.284h1.2837.321v.642h-.321-1.2837v2.567h1.2837.321v.642h-.321-1.2837v1.283.321h-.6418v-.321-1.283h-2.5673v1.283.321h-.6419v-.321-1.283h-1.2837-.3209v-.642h.3209 1.2837v-2.567h-1.2837-.3209v-.642h.3209 1.2837v-1.284-.321zm2.5673 4.814v-2.567h-2.5673v2.567z" fill="#fff" fill-opacity=".9" fill-rule="evenodd"/><path d="m7.02611 282.768 1.92552-2.568h-3.85104z" fill="#000" fill-opacity=".3"/></g><path d="m0 0h154.042v20.5389h-154.042z" fill="#161616" transform="translate(1.25 353.37)"/><path d="m31.0557 362.84h.6418c-.1905-.993-1.0229-1.675-2.106-1.675-1.3163 0-2.2465 1.013-2.2465 2.638s.9227 2.638 2.2866 2.638c1.2235 0 2.096-.815 2.096-2.086v-.552h-1.9556v.552h1.3539c-.0176.922-.6243 1.504-1.4943 1.504-.9527 0-1.6848-.722-1.6848-2.056s.7321-2.056 1.6447-2.056c.7421 0 1.246.419 1.4642 1.093zm1.6919 3.53h.5917v-2.437c0-.521.4112-.902.9728-.902.1579 0 .3209.03.361.04v-.602c-.0677-.005-.2231-.01-.3109-.01-.4613 0-.8624.261-1.0028.642h-.0402v-.582h-.5716zm4.1095.081c1.043 0 1.745-.793 1.745-1.986 0-1.204-.702-1.996-1.745-1.996s-1.745.792-1.745 1.996c0 1.193.702 1.986 1.745 1.986zm0-.532c-.7923 0-1.1533-.682-1.1533-1.454s.361-1.464 1.1533-1.464 1.1533.692 1.1533 1.464-.361 1.454-1.1533 1.454zm5.1105-1.123c0 .722-.5516 1.053-.9929 1.053-.4914 0-.8424-.361-.8424-.923v-2.407h-.5917v2.447c0 .983.5215 1.455 1.2436 1.455.5816 0 .9627-.311 1.1432-.703h.0402v.652h.5917v-3.851h-.5917zm1.7107 3.019h.5917v-2.036h.0501c.1304.21.3811.672 1.1232.672.9628 0 1.6347-.773 1.6347-1.996 0-1.214-.6719-1.986-1.6447-1.986-.7521 0-.9828.461-1.1132.662h-.0702v-.612h-.5716zm.5817-3.37c0-.863.381-1.444 1.1031-1.444.7522 0 1.1232.632 1.1232 1.444 0 .822-.3811 1.474-1.1232 1.474-.712 0-1.1031-.602-1.1031-1.474zm5.7669 1.925h3.2393v-.551h-2.3869v-.04l1.1533-1.234c.8826-.945 1.1433-1.386 1.1433-1.955 0-.793-.6418-1.425-1.5444-1.425-.9001 0-1.5846.612-1.5846 1.515h.5917c0-.584.3786-.973.9728-.973.5566 0 .9828.341.9828.883 0 .473-.2782.824-.8725 1.474l-1.6948 1.855z" fill="#fff" fill-opacity=".9"/><path clip-rule="evenodd" d="m17.2963 360.43h-1.2836v.642h1.2836zm1.6046 5.777h.321v-.321h.6418v.321.642h-.6418-.321zm-4.8137-3.209v1.284h-.6419v-1.284zm5.1347-1.605v-.321h-.321v-.642h.321.6418v.642.321zm0 1.605v1.284h.6418v-1.284zm-5.1347-1.605v-.321h.3209v-.642h-.3209-.6419v.642.321zm-.6419 4.814v-.321h.6419v.321h.3209v.642h-.3209-.6419zm3.851 0h-1.2836v.642h1.2836z" fill="#fff" fill-opacity=".9" fill-rule="evenodd"/><path d="m8.31052 363.64-2.56736-1.926v3.851z" fill="#fff" fill-opacity=".9"/><path d="m0 0h138.637v20.5389h-138.637z" fill="#161616" transform="translate(16.6543 527.951)"/><path d="m46.46 537.421h.6418c-.1905-.993-1.0229-1.675-2.106-1.675-1.3163 0-2.2465 1.013-2.2465 2.638 0 1.624.9227 2.637 2.2866 2.637 1.2235 0 2.096-.815 2.096-2.086v-.551h-1.9556v.551h1.3539c-.0176.923-.6243 1.504-1.4943 1.504-.9527 0-1.6848-.722-1.6848-2.055 0-1.334.7321-2.056 1.6447-2.056.7421 0 1.246.418 1.4642 1.093zm1.6919 3.53h.5917v-2.437c0-.522.4112-.903.9728-.903.1579 0 .3209.03.361.04v-.601c-.0677-.005-.2231-.01-.3109-.01-.4613 0-.8624.26-1.0028.642h-.0402v-.582h-.5716zm4.1095.08c1.043 0 1.745-.792 1.745-1.986 0-1.203-.702-1.995-1.745-1.995s-1.745.792-1.745 1.995c0 1.194.702 1.986 1.745 1.986zm0-.531c-.7923 0-1.1533-.682-1.1533-1.455 0-.772.361-1.464 1.1533-1.464.7922 0 1.1533.692 1.1533 1.464 0 .773-.3611 1.455-1.1533 1.455zm5.1105-1.124c0 .722-.5516 1.053-.9929 1.053-.4914 0-.8424-.361-.8424-.922v-2.407h-.5917v2.447c0 .983.5215 1.454 1.2436 1.454.5816 0 .9627-.311 1.1432-.702h.0402v.652h.5917v-3.851h-.5917zm1.7107 3.019h.5917v-2.036h.0501c.1304.211.3811.672 1.1232.672.9628 0 1.6347-.772 1.6347-1.996 0-1.213-.6719-1.985-1.6447-1.985-.7521 0-.9828.461-1.1132.662h-.0702v-.612h-.5716zm.5817-3.37c0-.862.381-1.444 1.1031-1.444.7522 0 1.1232.632 1.1232 1.444 0 .823-.3811 1.475-1.1232 1.475-.712 0-1.1031-.602-1.1031-1.475zm5.7669 1.926h3.2393v-.552h-2.3869v-.04l1.1533-1.233c.8826-.946 1.1433-1.387 1.1433-1.956 0-.792-.6418-1.424-1.5444-1.424-.9001 0-1.5846.612-1.5846 1.514h.5917c0-.584.3786-.972.9728-.972.5566 0 .9828.341.9828.882 0 .474-.2783.825-.8725 1.474l-1.6948 1.856z" fill="#fff" fill-opacity=".9"/><path clip-rule="evenodd" d="m32.6999 535.011h-1.2836v.642h1.2836zm1.6046 5.777h.3207v-.321h.6418v.321.641h-.6418-.3207zm-4.814-3.21v1.284h-.6419v-1.284zm5.1347-1.604v-.321h-.3207v-.642h.3207.6418v.642.321zm0 1.604v1.284h.6418v-1.284zm-5.1347-1.604v-.321h.3212v-.642h-.3212-.6419v.642.321zm-.6419 4.814v-.321h.6419v.321h.3212v.641h-.3212-.6419zm3.8513 0h-1.2836v.641h1.2836z" fill="#fff" fill-opacity=".9" fill-rule="evenodd"/><path d="m18.5791 538.22-2.5674-1.925v3.851z" fill="#fff" fill-opacity=".9"/><path d="m0 0h138.637v20.5389h-138.637z" fill="#161616" transform="translate(16.6543 558.759)"/><path d="m46.46 568.229h.6418c-.1905-.993-1.0229-1.675-2.106-1.675-1.3163 0-2.2465 1.013-2.2465 2.638 0 1.624.9227 2.637 2.2866 2.637 1.2235 0 2.096-.815 2.096-2.086v-.551h-1.9556v.551h1.3539c-.0176.923-.6243 1.505-1.4943 1.505-.9527 0-1.6848-.723-1.6848-2.056 0-1.334.7321-2.056 1.6447-2.056.7421 0 1.246.418 1.4642 1.093zm1.6919 3.53h.5917v-2.437c0-.521.4112-.903.9728-.903.1579 0 .3209.031.361.041v-.602c-.0677-.005-.2231-.01-.3109-.01-.4613 0-.8624.261-1.0028.642h-.0402v-.582h-.5716zm4.1095.08c1.043 0 1.745-.792 1.745-1.985 0-1.204-.702-1.996-1.745-1.996s-1.745.792-1.745 1.996c0 1.193.702 1.985 1.745 1.985zm0-.531c-.7923 0-1.1533-.682-1.1533-1.454 0-.773.361-1.465 1.1533-1.465.7922 0 1.1533.692 1.1533 1.465 0 .772-.3611 1.454-1.1533 1.454zm5.1105-1.123c0 .722-.5516 1.053-.9929 1.053-.4914 0-.8424-.361-.8424-.923v-2.407h-.5917v2.447c0 .983.5215 1.454 1.2436 1.454.5816 0 .9627-.311 1.1432-.702h.0402v.652h.5917v-3.851h-.5917zm1.7107 3.018h.5917v-2.036h.0501c.1304.211.3811.672 1.1232.672.9628 0 1.6347-.772 1.6347-1.995 0-1.214-.6719-1.986-1.6447-1.986-.7521 0-.9828.461-1.1132.662h-.0702v-.612h-.5716zm.5817-3.369c0-.863.381-1.445 1.1031-1.445.7522 0 1.1232.632 1.1232 1.445 0 .822-.3811 1.474-1.1232 1.474-.712 0-1.1031-.602-1.1031-1.474zm5.7669 1.925h3.2393v-.552h-2.3869v-.04l1.1533-1.233c.8826-.945 1.1433-1.387 1.1433-1.956 0-.792-.6418-1.424-1.5444-1.424-.9001 0-1.5846.612-1.5846 1.514h.5917c0-.584.3786-.972.9728-.972.5566 0 .9828.341.9828.882 0 .474-.2783.825-.8725 1.474l-1.6948 1.856z" fill="#fff" fill-opacity=".9"/><path clip-rule="evenodd" d="m32.6999 565.819h-1.2836v.642h1.2836zm1.6046 5.777h.3207v-.321h.6418v.321.642h-.6418-.3207zm-4.814-3.209v1.283h-.6419v-1.283zm5.1347-1.605v-.321h-.3207v-.642h.3207.6418v.642.321zm0 1.605v1.283h.6418v-1.283zm-5.1347-1.605v-.321h.3212v-.642h-.3212-.6419v.642.321zm-.6419 4.814v-.321h.6419v.321h.3212v.642h-.3212-.6419zm3.8513 0h-1.2836v.642h1.2836z" fill="#fff" fill-opacity=".9" fill-rule="evenodd"/><path d="m18.5791 569.029-2.5674-1.926v3.851z" fill="#fff" fill-opacity=".9"/><path d="m0 0h154.042v20.5389h-154.042z" fill="#161616" transform="translate(1.25 373.909)"/><path d="m8.31052 384.179-2.56736-1.926v3.851z" fill="#fff" fill-opacity=".9"/><path d="m27.5456 386.909h1.8553c1.2135 0 1.7149-.591 1.7149-1.363 0-.813-.5616-1.254-1.0329-1.284v-.05c.4413-.121.8324-.411.8324-1.073 0-.753-.5015-1.364-1.5745-1.364h-1.7952zm.6218-.551v-1.785h1.2636c.6719 0 1.0932.451 1.0932.973 0 .451-.3109.812-1.1233.812zm0-2.327v-1.705h1.1734c.6819 0 .9828.361.9828.813 0 .541-.4413.892-1.0029.892zm6.3522 1.304c0 .722-.5516 1.053-.9929 1.053-.4914 0-.8424-.361-.8424-.923v-2.407h-.5917v2.447c0 .983.5215 1.455 1.2436 1.455.5816 0 .9627-.311 1.1432-.702h.0402v.651h.5917v-3.851h-.5917zm3.3855-2.277h-.8224v-.922h-.5917v.922h-.5816v.502h.5816v2.407c0 .672.5416.993 1.043.993.2207 0 .3611-.041.4413-.071l-.1204-.531c-.0501.01-.1303.03-.2607.03-.2608 0-.5115-.08-.5115-.582v-2.246h.8224zm2.6001 0h-.8223v-.922h-.5917v.922h-.5817v.502h.5817v2.407c0 .672.5415.993 1.043.993.2206 0 .361-.041.4412-.071l-.1203-.531c-.0501.01-.1304.03-.2607.03-.2608 0-.5115-.08-.5115-.582v-2.246h.8223zm2.4485 3.932c1.043 0 1.745-.793 1.745-1.986 0-1.203-.702-1.996-1.745-1.996s-1.745.793-1.745 1.996c0 1.193.702 1.986 1.745 1.986zm0-.532c-.7923 0-1.1533-.682-1.1533-1.454s.361-1.464 1.1533-1.464 1.1533.692 1.1533 1.464-.361 1.454-1.1533 1.454zm3.2752-1.865c0-.672.4162-1.053.9828-1.053.5491 0 .8826.358.8826.963v2.406h.5917v-2.447c0-.982-.524-1.454-1.3038-1.454-.5816 0-.9427.261-1.1232.652h-.0501v-.602h-.5717v3.851h.5917zm7.4098-3.059h-.5416l-1.6547 6.148h.5416zm3.8909 5.466c.672 0 1.023-.361 1.1433-.612h.0301v.521h.5917v-2.537c0-1.223-.9327-1.364-1.4241-1.364-.5817 0-1.2436.201-1.5444.903l.5616.2c.1304-.28.4387-.581 1.0029-.581.544 0 .8123.288.8123.782v.02c0 .286-.2908.261-.9929.351-.7145.093-1.4942.251-1.4942 1.133 0 .752.5816 1.184 1.3137 1.184zm.0903-.532c-.4714 0-.8123-.21-.8123-.622 0-.451.4111-.591.8725-.651.2507-.031.9226-.101 1.0229-.221v.541c0 .482-.3811.953-1.0831.953zm4.3545.522c.8525 0 1.4141-.522 1.5144-1.204h-.5917c-.1103.421-.4613.672-.9227.672-.702 0-1.1533-.582-1.1533-1.474 0-.873.4614-1.444 1.1533-1.444.5215 0 .8324.321.9227.672h.5917c-.1003-.722-.7121-1.204-1.5244-1.204-1.043 0-1.735.823-1.735 1.996 0 1.153.6619 1.986 1.745 1.986zm4.0895-3.932h-.8224v-.922h-.5917v.922h-.5817v.502h.5817v2.407c0 .672.5416.993 1.043.993.2206 0 .361-.041.4413-.071l-.1204-.531c-.0501.01-.1303.03-.2607.03-.2608 0-.5115-.08-.5115-.582v-2.246h.8224zm.9253 3.851h.5917v-3.851h-.5917zm.3009-4.492c.2306 0 .4212-.181.4212-.402 0-.22-.1906-.401-.4212-.401-.2307 0-.4212.181-.4212.401 0 .221.1905.402.4212.402zm4.5589.641h-.6419l-1.063 3.069h-.0401l-1.0631-3.069h-.6418l1.4241 3.851h.6017zm2.293 3.932c.7822 0 1.3539-.391 1.5344-.973l-.5716-.161c-.1505.402-.499.602-.9628.602-.6945 0-1.1734-.449-1.2009-1.274h2.7955v-.25c0-1.434-.8525-1.926-1.6548-1.926-1.043 0-1.7349.823-1.7349 2.006s.6819 1.976 1.7951 1.976zm-1.2009-2.317c.0401-.599.4638-1.133 1.1407-1.133.6419 0 1.053.481 1.053 1.133z" fill="#20a3fb"/><path clip-rule="evenodd" d="m12.6924 384.179.2156-.216 3.5301-3.53.2156-.215.2155.215 3.5302 3.53.2155.216-.2155.215-3.5302 3.531-.2155.215-.2156-.215-3.5301-3.531zm3.9613 3.099 3.0989-3.099-3.0989-3.099-3.099 3.099z" fill="#1ca1fb" fill-rule="evenodd"/><g clip-path="url(#n)"><path d="m0 0h154.042v20.5389h-154.042z" fill="#161616" transform="translate(1.25 394.448)"/><g fill="#fff" fill-opacity=".9"><path d="m28.5109 407.448h.9176l1.0305-3.603h.0401l1.0279 3.603h.9177l1.4491-5.135h-1.0004l-.9251 3.776h-.0451l-.9904-3.776h-.9101l-.9878 3.774h-.0477l-.9251-3.774h-1.0004zm6.7382.078c.6043 0 .9653-.284 1.1308-.607h.0301v.529h.8725v-2.577c0-1.018-.8299-1.324-1.5645-1.324-.8098 0-1.4316.361-1.6322 1.063l.8474.12c.0903-.263.346-.489.7898-.489.4212 0 .6519.216.6519.595v.015c0 .26-.2733.273-.9528.346-.7471.08-1.4616.303-1.4616 1.17 0 .758.554 1.159 1.2886 1.159zm.2357-.667c-.3786 0-.6493-.173-.6493-.507 0-.348.3033-.494.7095-.551.2382-.033.7145-.093.8324-.188v.454c0 .428-.346.792-.8926.792zm2.7456.589h.9076v-2.264c0-.489.3686-.835.8675-.835.1529 0 .3435.028.4212.053v-.835c-.0827-.015-.2257-.025-.3259-.025-.4413 0-.8099.251-.9503.697h-.0401v-.642h-.88zm3.7422-2.256c0-.557.3359-.878.8148-.878.4689 0 .7497.308.7497.822v2.312h.9076v-2.452c.0025-.923-.524-1.449-1.3188-1.449-.5767 0-.9728.276-1.1483.704h-.0451v-.654h-.8675v3.851h.9076zm3.43 2.256h.9076v-3.851h-.9076zm.4563-4.398c.2883 0 .524-.22.524-.491 0-.273-.2357-.494-.524-.494-.2908 0-.5265.221-.5265.494 0 .271.2357.491.5265.491zm2.3275 2.142c0-.557.336-.878.8148-.878.4689 0 .7497.308.7497.822v2.312h.9076v-2.452c.0025-.923-.524-1.449-1.3188-1.449-.5766 0-.9728.276-1.1483.704h-.0451v-.654h-.8675v3.851h.9076zm5.1048 3.78c1.0405 0 1.8077-.476 1.8077-1.461v-3.914h-.895v.637h-.0502c-.1379-.279-.4262-.687-1.1057-.687-.89 0-1.5895.697-1.5895 1.963 0 1.256.6995 1.883 1.587 1.883.6594 0 .9678-.354 1.1082-.637h.0451v.73c0 .566-.376.799-.8925.799-.5466 0-.7873-.258-.8976-.483l-.8173.198c.1654.539.7195.972 1.6998.972zm.0076-2.291c-.5992 0-.9152-.467-.9152-1.176 0-.7.3109-1.214.9152-1.214.5841 0 .9051.484.9051 1.214 0 .735-.326 1.176-.9051 1.176z"/><path clip-rule="evenodd" d="m17.938 406.643v1.284.32h.6419v-.32-1.284h1.2834.321v-.642h-.321-1.2834v-2.567h1.2834.321v-.642h-.321-1.2834v-1.284-.321h-.6419v.321 1.284h-2.5673v-1.284-.321h-.6419v.321 1.284h-1.2839-.3209v.642h.3209 1.2839v2.567h-1.2839-.3209v.642h.3209 1.2839v1.284.321h.6419v-.321-1.284zm0-.642v-2.567h-2.5673v2.567z" fill-rule="evenodd"/><path d="m7.02611 406.001 1.92552-2.567h-3.85104z"/></g></g><path d="m0 0h138.637v20.5389h-138.637z" fill="#161616" transform="translate(16.6543 456.065)"/><path d="m42.9499 469.065h.6218v-2.297h2.2264v-.551h-2.2264v-1.735h2.457v-.552h-3.0788zm4.0575 0h.5917v-2.437c0-.522.4111-.903.9728-.903.1579 0 .3209.03.361.04v-.601c-.0677-.006-.2232-.011-.3109-.011-.4613 0-.8625.261-1.0029.642h-.0401v-.581h-.5716zm3.7954.09c.6719 0 1.023-.361 1.1433-.612h.0301v.522h.5917v-2.538c0-1.223-.9327-1.363-1.4241-1.363-.5817 0-1.2436.2-1.5444.902l.5616.201c.1304-.281.4387-.582 1.0029-.582.544 0 .8123.288.8123.782v.02c0 .286-.2908.261-.9929.351-.7145.093-1.4942.251-1.4942 1.134 0 .752.5816 1.183 1.3137 1.183zm.0903-.532c-.4714 0-.8123-.21-.8123-.621 0-.452.4111-.592.8725-.652.2507-.03.9226-.101 1.0229-.221v.542c0 .481-.3811.952-1.0831.952zm2.7901.442h.5917v-2.407c0-.564.4111-.963.8725-.963.4487 0 .7621.293.7621.732v2.638h.6018v-2.507c0-.497.3109-.863.8524-.863.4212 0 .7822.223.7822.792v2.578h.5917v-2.578c0-.905-.4863-1.323-1.1733-1.323-.5516 0-.9553.253-1.1533.651h-.0401c-.1906-.411-.5265-.651-1.033-.651-.5014 0-.8725.24-1.033.651h-.0501v-.601h-.5716zm7.7862.08c.7823 0 1.3539-.391 1.5344-.973l-.5716-.16c-.1504.401-.4989.601-.9628.601-.6945 0-1.1733-.448-1.2009-1.273h2.7955v-.251c0-1.434-.8524-1.925-1.6547-1.925-1.043 0-1.735.822-1.735 2.005 0 1.184.6819 1.976 1.7951 1.976zm-1.2009-2.317c.0401-.599.4638-1.133 1.1408-1.133.6418 0 1.053.481 1.053 1.133z" fill="#fff" fill-opacity=".9"/><path clip-rule="evenodd" d="m33.3423 468.26v1.283.321h.6419v-.321-1.283h1.2834.321v-.642h-.321-1.2834v-2.567h1.2834.321v-.642h-.321-1.2834v-1.284-.321h-.6419v.321 1.284h-2.5676v-1.284-.321h-.6418v.321 1.284h-1.2837-.3209v.642h.3209 1.2837v2.567h-1.2837-.3209v.642h.3209 1.2837v1.283.321h.6418v-.321-1.283zm0-.642v-2.567h-2.5676v2.567z" fill="#fff" fill-opacity=".9" fill-rule="evenodd"/><path d="m18.5791 466.334-2.5674-1.925v3.851z" fill="#fff" fill-opacity=".9"/><g clip-path="url(#o)"><path d="m0 0h154.042v20.5389h-154.042z" fill="#161616" transform="translate(1.25 497.143)"/><path d="m27.2046 505.788h1.5871v4.355h.9226v-4.355h1.5871v-.78h-4.0968zm6.0031 4.43c1.1282 0 1.8453-.795 1.8453-1.986 0-1.193-.7171-1.991-1.8453-1.991-1.1283 0-1.8453.798-1.8453 1.991 0 1.191.717 1.986 1.8453 1.986zm.005-.727c-.6243 0-.9302-.557-.9302-1.261 0-.705.3059-1.269.9302-1.269.6142 0 .9201.564.9201 1.269 0 .704-.3059 1.261-.9201 1.261zm2.6459 2.096h.9076v-2.051h.0376c.1429.281.4413.674 1.1032.674.9076 0 1.587-.719 1.587-1.988 0-1.284-.6995-1.981-1.5895-1.981-.6795 0-.9628.409-1.1007.687h-.0526v-.636h-.8926zm.89-3.37c0-.747.321-1.231.9051-1.231.6043 0 .9152.514.9152 1.231 0 .722-.3159 1.249-.9152 1.249-.5791 0-.9051-.502-.9051-1.249zm5.8921-.587h-2.3116v.748h2.3116zm1.8976-2.622h-.9076v5.135h.9076zm2.6734 5.21c.8976 0 1.5144-.439 1.6748-1.108l-.8474-.096c-.1228.326-.4237.497-.8148.497-.5867 0-.9753-.386-.9828-1.046h2.6827v-.278c0-1.351-.8124-1.946-1.7601-1.946-1.1032 0-1.8227.81-1.8227 1.999 0 1.208.7095 1.978 1.8703 1.978zm-.9677-2.364c.0275-.492.3911-.906.9326-.906.5215 0 .8725.382.8776.906zm6.8128-1.562h-.9652l-.8876 2.86h-.0401l-.885-2.86h-.9678l1.3714 3.851h1.0029zm2.2373 3.926c.8975 0 1.5143-.439 1.6748-1.108l-.8475-.096c-.1228.326-.4237.497-.8148.497-.5867 0-.9753-.386-.9828-1.046h2.6827v-.278c0-1.351-.8124-1.946-1.7601-1.946-1.1031 0-1.8227.81-1.8227 1.999 0 1.208.7095 1.978 1.8704 1.978zm-.9678-2.364c.0276-.492.3911-.906.9327-.906.5215 0 .8725.382.8775.906zm4.3909-2.846h-.9076v5.135h.9076zm5.7989 2.301c-.1254-.651-.6468-1.068-1.5494-1.068-.9277 0-1.5595.457-1.557 1.169-.0025.561.3435.932 1.0831 1.085l.6569.138c.3535.078.519.221.519.439 0 .263-.2858.461-.7171.461-.4162 0-.6869-.18-.7647-.526l-.885.085c.1128.707.707 1.126 1.6522 1.126.9628 0 1.6422-.499 1.6447-1.229-.0025-.549-.356-.885-1.0831-1.043l-.6568-.14c-.3912-.088-.5466-.223-.5441-.446-.0025-.261.2858-.442.6644-.442.4187 0 .6393.228.7095.482zm2.5463 2.909c.9677 0 1.5845-.574 1.6497-1.392h-.8675c-.0777.414-.3761.652-.7747.652-.5666 0-.9327-.474-.9327-1.261 0-.777.3736-1.244.9327-1.244.4362 0 .7045.281.7747.652h.8675c-.0627-.835-.7146-1.384-1.6548-1.384-1.1282 0-1.8402.815-1.8402 1.991 0 1.166.6945 1.986 1.8453 1.986zm2.4302-.075h.9076v-2.264c0-.489.3686-.835.8675-.835.153 0 .3435.027.4212.052v-.835c-.0827-.015-.2256-.025-.3259-.025-.4413 0-.8098.251-.9502.697h-.0401v-.641h-.8801zm4.3559.075c1.1282 0 1.8453-.795 1.8453-1.986 0-1.193-.7171-1.991-1.8453-1.991-1.1283 0-1.8453.798-1.8453 1.991 0 1.191.717 1.986 1.8453 1.986zm.005-.727c-.6243 0-.9302-.557-.9302-1.261 0-.705.3059-1.269.9302-1.269.6142 0 .9201.564.9201 1.269 0 .704-.3059 1.261-.9201 1.261zm3.5535-4.483h-.9076v5.135h.9076zm1.8762 0h-.9076v5.135h.9076zm.9686 5.135h.9076v-3.851h-.9076zm.4563-4.398c.2883 0 .524-.221.524-.491 0-.274-.2357-.494-.524-.494-.2908 0-.5265.22-.5265.494 0 .27.2357.491.5265.491zm2.3275 2.141c0-.556.336-.877.8148-.877.4689 0 .7497.308.7497.822v2.312h.9076v-2.452c.0025-.923-.524-1.45-1.3188-1.45-.5766 0-.9728.276-1.1483.705h-.0451v-.654h-.8675v3.851h.9076zm5.1048 3.781c1.0405 0 1.8077-.476 1.8077-1.462v-3.913h-.895v.636h-.0502c-.1379-.278-.4262-.687-1.1057-.687-.89 0-1.5895.697-1.5895 1.964 0 1.256.6995 1.882 1.587 1.882.6594 0 .9678-.353 1.1082-.636h.0451v.729c0 .567-.376.8-.8925.8-.5466 0-.7873-.258-.8976-.484l-.8173.198c.1654.539.7195.973 1.6998.973zm.0076-2.292c-.5993 0-.9152-.466-.9152-1.175 0-.7.3109-1.214.9152-1.214.5841 0 .9051.484.9051 1.214 0 .734-.326 1.175-.9051 1.175zm6.5028-3.083h-.7998v-.304c0-.301.1253-.469.4638-.469.1429 0 .2632.033.3385.055l.183-.702c-.1179-.04-.3761-.105-.6895-.105-.6694 0-1.2034.384-1.2034 1.161v.364h-.5692v.702h.5692v3.149h.9076v-3.149h.7998zm.746 3.851h.9076v-2.264c0-.489.3686-.835.8675-.835.153 0 .3435.027.4212.052v-.835c-.0827-.015-.2256-.025-.3259-.025-.4413 0-.8098.251-.9502.697h-.0401v-.641h-.8801zm3.867.077c.6042 0 .9652-.283 1.1302-.606h.031v.529h.872v-2.578c0-1.018-.83-1.324-1.5644-1.324-.8098 0-1.4316.361-1.6322 1.063l.8474.121c.0903-.263.346-.489.7898-.489.4214 0 .6514.216.6514.594v.015c0 .261-.273.273-.9523.346-.7471.08-1.4616.303-1.4616 1.171 0 .757.554 1.158 1.2887 1.158zm.2356-.667c-.3786 0-.6493-.173-.6493-.506 0-.349.3033-.494.7095-.552.2382-.032.7144-.092.8324-.188v.454c0 .429-.346.792-.8926.792zm2.7456.59h.908v-2.342c0-.474.316-.795.707-.795.383 0 .646.258.646.654v2.483h.891v-2.402c0-.434.258-.735.697-.735.366 0 .656.216.656.692v2.445h.911v-2.585c0-.86-.497-1.317-1.204-1.317-.559 0-.985.276-1.156.705h-.04c-.148-.436-.521-.705-1.04-.705-.517 0-.903.266-1.063.705h-.046v-.654h-.867zm8.076.075c.898 0 1.515-.439 1.675-1.108l-.847-.096c-.123.326-.424.497-.815.497-.587 0-.975-.386-.983-1.046h2.683v-.278c0-1.351-.812-1.946-1.76-1.946-1.103 0-1.823.81-1.823 1.999 0 1.208.71 1.978 1.87 1.978zm-.967-2.364c.027-.492.391-.906.932-.906.522 0 .873.382.878.906z" fill="#fff" fill-opacity=".9"/><path d="m8.31052 507.412-2.56736-1.925v3.851z" fill="#000" fill-opacity=".3"/><path clip-rule="evenodd" d="m14.0872 504.203h.0001v.642h-.0001v5.135h.0001v.641h5.1348v-6.418h.6416v.642 5.135.642h-.6418-5.1347-.6419v-.642-5.135-.642zm2.7943.415-.2269-.227-.2269.227-1.2837 1.284.4539.453.7358-.735v3.585l-.7358-.736-.4539.454 1.2837 1.283.2269.227.2269-.227 1.2837-1.283-.4538-.454-.7359.736v-3.585l.7359.735.4538-.453z" fill="#fff" fill-opacity=".9" fill-rule="evenodd"/></g><path d="m0 0h154.042v20.5389h-154.042z" fill="#161616" transform="translate(1.25 579.298)"/><path d="m31.0557 588.768h.6418c-.1905-.993-1.0229-1.675-2.106-1.675-1.3163 0-2.2465 1.013-2.2465 2.638 0 1.624.9227 2.637 2.2866 2.637 1.2235 0 2.096-.815 2.096-2.086v-.551h-1.9556v.551h1.3539c-.0176.923-.6243 1.505-1.4943 1.505-.9527 0-1.6848-.722-1.6848-2.056s.7321-2.056 1.6447-2.056c.7421 0 1.246.419 1.4642 1.093zm1.6919 3.53h.5917v-2.437c0-.521.4112-.902.9728-.902.1579 0 .3209.03.361.04v-.602c-.0677-.005-.2231-.01-.3109-.01-.4613 0-.8624.261-1.0028.642h-.0402v-.582h-.5716zm4.1095.08c1.043 0 1.745-.792 1.745-1.985 0-1.204-.702-1.996-1.745-1.996s-1.745.792-1.745 1.996c0 1.193.702 1.985 1.745 1.985zm0-.531c-.7923 0-1.1533-.682-1.1533-1.454 0-.773.361-1.465 1.1533-1.465s1.1533.692 1.1533 1.465c0 .772-.361 1.454-1.1533 1.454zm5.1105-1.123c0 .722-.5516 1.053-.9929 1.053-.4914 0-.8424-.361-.8424-.923v-2.407h-.5917v2.447c0 .983.5215 1.454 1.2436 1.454.5816 0 .9627-.311 1.1432-.702h.0402v.652h.5917v-3.851h-.5917zm1.7107 3.018h.5917v-2.036h.0501c.1304.211.3811.672 1.1232.672.9628 0 1.6347-.772 1.6347-1.995 0-1.214-.6719-1.986-1.6447-1.986-.7521 0-.9828.461-1.1132.662h-.0702v-.612h-.5716zm.5817-3.369c0-.863.381-1.445 1.1031-1.445.7522 0 1.1232.632 1.1232 1.445 0 .822-.3811 1.474-1.1232 1.474-.712 0-1.1031-.602-1.1031-1.474z" fill="#fff" fill-opacity=".9"/><path clip-rule="evenodd" d="m17.2963 586.358h-1.2836v.642h1.2836zm1.6046 5.777h.321v-.321h.6418v.321.642h-.6418-.321zm-4.8137-3.209v1.283h-.6419v-1.283zm5.1347-1.605v-.321h-.321v-.642h.321.6418v.642.321zm0 1.605v1.283h.6418v-1.283zm-5.1347-1.605v-.321h.3209v-.642h-.3209-.6419v.642.321zm-.6419 4.814v-.321h.6419v.321h.3209v.642h-.3209-.6419zm3.851 0h-1.2836v.642h1.2836z" fill="#fff" fill-opacity=".9" fill-rule="evenodd"/><path d="m8.31052 589.567-2.56736-1.925v3.851z" fill="#fff" fill-opacity=".9"/><g clip-path="url(#p)"><path d="m0 0h154.042v20.5389h-154.042z" fill="#161616" transform="translate(1.25 599.837)"/><path clip-rule="evenodd" d="m18.58 607.539h-3.851c-.3545 0-.6418.287-.6418.642v3.851c0 .354.2873.642.6418.642h3.851c.3545 0 .6419-.288.6419-.642v-3.851c0-.355-.2874-.642-.6419-.642zm-3.851-.642c-.709 0-1.2837.575-1.2837 1.284v3.851c0 .709.5747 1.284 1.2837 1.284h3.851c.709 0 1.2837-.575 1.2837-1.284v-3.851c0-.709-.5747-1.284-1.2837-1.284z" fill="#000" fill-opacity=".3" fill-rule="evenodd"/><path d="m27.5456 612.837h.6218v-2.006h1.1232c.0451 0 .0878 0 .1304-.002l1.0831 2.008h.7221l-1.1609-2.121c.6544-.223.9603-.757.9603-1.439 0-.908-.5416-1.575-1.745-1.575h-1.735zm.6218-2.567v-2.016h1.0931c.8324 0 1.1533.406 1.1533 1.023 0 .616-.3209.993-1.1432.993zm5.4226 2.647c.7823 0 1.3539-.391 1.5344-.973l-.5716-.16c-.1505.401-.499.602-.9628.602-.6945 0-1.1733-.449-1.2009-1.274h2.7955v-.251c0-1.434-.8525-1.925-1.6548-1.925-1.0429 0-1.7349.822-1.7349 2.005 0 1.184.6819 1.976 1.7951 1.976zm-1.2009-2.316c.0401-.6.4638-1.134 1.1407-1.134.6419 0 1.0531.482 1.0531 1.134zm5.2954 2.316c.8524 0 1.414-.521 1.5143-1.203h-.5917c-.1103.421-.4613.672-.9226.672-.7021 0-1.1534-.582-1.1534-1.475 0-.872.4614-1.444 1.1534-1.444.5214 0 .8323.321.9226.672h.5917c-.1003-.722-.712-1.203-1.5244-1.203-1.043 0-1.7349.822-1.7349 1.995 0 1.154.6618 1.986 1.745 1.986zm4.0894-3.931h-.8224v-.923h-.5917v.923h-.5816v.501h.5816v2.407c0 .672.5416.993 1.043.993.2206 0 .361-.04.4413-.07l-.1204-.532c-.0501.01-.1303.03-.2607.03-.2608 0-.5115-.08-.5115-.581v-2.247h.8224zm2.0586 3.941c.6719 0 1.0229-.361 1.1433-.612h.03v.522h.5917v-2.537c0-1.224-.9326-1.364-1.424-1.364-.5817 0-1.2436.2-1.5445.902l.5616.201c.1304-.281.4388-.582 1.0029-.582.5441 0 .8123.289.8123.782v.021c0 .285-.2908.26-.9928.351-.7146.092-1.4943.25-1.4943 1.133 0 .752.5817 1.183 1.3138 1.183zm.0902-.531c-.4713 0-.8123-.211-.8123-.622 0-.451.4112-.592.8725-.652.2507-.03.9227-.1 1.0229-.221v.542c0 .481-.381.953-1.0831.953zm3.3818-1.876c0-.672.4162-1.053.9828-1.053.5491 0 .8826.359.8826.963v2.407h.5917v-2.447c0-.983-.524-1.454-1.3038-1.454-.5817 0-.9427.26-1.1232.652h-.0501v-.602h-.5717v3.851h.5917zm5.128 3.841c.9227 0 1.6648-.421 1.6648-1.414v-3.961h-.5716v.612h-.0602c-.1304-.201-.3711-.662-1.1232-.662-.9728 0-1.6447.772-1.6447 1.955 0 1.204.702 1.886 1.6346 1.886.7522 0 .9929-.442 1.1233-.652h.0501v.782c0 .642-.4513.933-1.0731.933-.6995 0-.9452-.369-1.1031-.582l-.4714.331c.2407.404.7146.772 1.5745.772zm-.02-2.116c-.7421 0-1.1232-.561-1.1232-1.364 0-.782.371-1.414 1.1232-1.414.722 0 1.1031.582 1.1031 1.414 0 .853-.3911 1.364-1.1031 1.364zm3.3949-4.543h-.5917v5.135h.5917zm2.7337 5.215c.7822 0 1.3539-.391 1.5344-.973l-.5717-.16c-.1504.401-.4989.602-.9627.602-.6945 0-1.1734-.449-1.201-1.274h2.7955v-.251c0-1.434-.8524-1.925-1.6547-1.925-1.043 0-1.735.822-1.735 2.005 0 1.184.682 1.976 1.7952 1.976zm-1.201-2.316c.0401-.6.4639-1.134 1.1408-1.134.6418 0 1.053.482 1.053 1.134z" fill="#fff" fill-opacity=".9"/></g><path d="m0 0h154.042v20.5389h-154.042z" fill="#161616" transform="translate(1.25 620.376)"/><path d="m31.0557 629.846h.6418c-.1905-.993-1.0229-1.675-2.106-1.675-1.3163 0-2.2465 1.013-2.2465 2.638 0 1.624.9227 2.637 2.2866 2.637 1.2235 0 2.096-.815 2.096-2.086v-.551h-1.9556v.551h1.3539c-.0176.923-.6243 1.505-1.4943 1.505-.9527 0-1.6848-.723-1.6848-2.056 0-1.334.7321-2.056 1.6447-2.056.7421 0 1.246.418 1.4642 1.093zm1.6919 3.53h.5917v-2.437c0-.522.4112-.903.9728-.903.1579 0 .3209.03.361.041v-.602c-.0677-.005-.2231-.01-.3109-.01-.4613 0-.8624.261-1.0028.642h-.0402v-.582h-.5716zm4.1095.08c1.043 0 1.745-.792 1.745-1.985 0-1.204-.702-1.996-1.745-1.996s-1.745.792-1.745 1.996c0 1.193.702 1.985 1.745 1.985zm0-.531c-.7923 0-1.1533-.682-1.1533-1.454 0-.773.361-1.465 1.1533-1.465s1.1533.692 1.1533 1.465c0 .772-.361 1.454-1.1533 1.454zm5.1105-1.124c0 .723-.5516 1.053-.9929 1.053-.4914 0-.8424-.361-.8424-.922v-2.407h-.5917v2.447c0 .983.5215 1.454 1.2436 1.454.5816 0 .9627-.311 1.1432-.702h.0402v.652h.5917v-3.851h-.5917zm1.7107 3.019h.5917v-2.036h.0501c.1304.211.3811.672 1.1232.672.9628 0 1.6347-.772 1.6347-1.996 0-1.213-.6719-1.985-1.6447-1.985-.7521 0-.9828.461-1.1132.662h-.0702v-.612h-.5716zm.5817-3.37c0-.862.381-1.444 1.1031-1.444.7522 0 1.1232.632 1.1232 1.444 0 .823-.3811 1.475-1.1232 1.475-.712 0-1.1031-.602-1.1031-1.475zm7.5721-3.209h-.6218l-1.2837.853v.632l1.2536-.833h.0301v4.483h.6218z" fill="#fff" fill-opacity=".9"/><path clip-rule="evenodd" d="m17.2963 627.436h-1.2836v.642h1.2836zm1.6046 5.777h.321v-.321h.6418v.321.641h-.6418-.321zm-4.8137-3.21v1.284h-.6419v-1.284zm5.1347-1.604v-.321h-.321v-.642h.321.6418v.642.321zm0 1.604v1.284h.6418v-1.284zm-5.1347-1.604v-.321h.3209v-.642h-.3209-.6419v.642.321zm-.6419 4.814v-.321h.6419v.321h.3209v.641h-.3209-.6419zm3.851 0h-1.2836v.641h1.2836z" fill="#000" fill-opacity=".3" fill-rule="evenodd"/><path d="m8.31052 630.645-2.56736-1.925v3.851z" fill="#000" fill-opacity=".3"/><g clip-path="url(#q)"><path d="m0 0h138.637v20.5389h-138.637z" fill="#161616" transform="translate(16.6543 414.987)"/><g fill="#fff" fill-opacity=".9"><path clip-rule="evenodd" d="m33.9834 422.689h-3.8511c-.3545 0-.6418.287-.6418.642v3.851c0 .354.2873.641.6418.641h3.8511c.3544 0 .6418-.287.6418-.641v-3.851c0-.355-.2874-.642-.6418-.642zm-3.8511-.642c-.7089 0-1.2837.575-1.2837 1.284v3.851c0 .709.5748 1.283 1.2837 1.283h3.8511c.7089 0 1.2836-.574 1.2836-1.283v-3.851c0-.709-.5747-1.284-1.2836-1.284z" fill-rule="evenodd"/><path d="m42.9499 427.987h.6218v-2.006h1.1232c.0451 0 .0878 0 .1304-.003l1.0831 2.009h.7221l-1.1609-2.122c.6544-.223.9603-.757.9603-1.439 0-.907-.5416-1.574-1.745-1.574h-1.735zm.6218-2.568v-2.016h1.0931c.8324 0 1.1533.407 1.1533 1.023 0 .617-.3209.993-1.1432.993zm5.4226 2.648c.7823 0 1.3539-.391 1.5344-.973l-.5716-.16c-.1505.401-.499.601-.9628.601-.6945 0-1.1734-.449-1.2009-1.273h2.7955v-.251c0-1.434-.8525-1.926-1.6548-1.926-1.043 0-1.7349.823-1.7349 2.006 0 1.184.6819 1.976 1.7951 1.976zm-1.2009-2.317c.0401-.599.4638-1.133 1.1407-1.133.6419 0 1.0531.481 1.0531 1.133zm5.2954 2.317c.8524 0 1.414-.522 1.5143-1.204h-.5917c-.1103.422-.4613.672-.9226.672-.7021 0-1.1534-.581-1.1534-1.474 0-.872.4614-1.444 1.1534-1.444.5214 0 .8323.321.9226.672h.5917c-.1003-.722-.712-1.204-1.5244-1.204-1.043 0-1.735.823-1.735 1.996 0 1.153.6619 1.986 1.7451 1.986zm4.0894-3.931h-.8224v-.923h-.5917v.923h-.5816v.501h.5816v2.407c0 .672.5416.993 1.043.993.2206 0 .361-.04.4413-.07l-.1204-.532c-.0501.01-.1303.03-.2607.03-.2608 0-.5115-.08-.5115-.582v-2.246h.8224zm2.0586 3.941c.6719 0 1.0229-.361 1.1433-.612h.03v.522h.5917v-2.538c0-1.223-.9326-1.364-1.424-1.364-.5817 0-1.2436.201-1.5445.903l.5616.201c.1304-.281.4388-.582 1.0029-.582.5441 0 .8123.288.8123.782v.02c0 .286-.2908.261-.9928.351-.7146.093-1.4943.251-1.4943 1.133 0 .753.5817 1.184 1.3138 1.184zm.0902-.532c-.4713 0-.8123-.21-.8123-.621 0-.452.4112-.592.8725-.652.2507-.03.9227-.101 1.0229-.221v.542c0 .481-.3811.952-1.0831.952zm3.3818-1.875c0-.672.4162-1.053.9828-1.053.5491 0 .8826.358.8826.963v2.407h.5917v-2.447c0-.983-.5241-1.455-1.3038-1.455-.5817 0-.9427.261-1.1232.652h-.0502v-.601h-.5716v3.851h.5917zm5.128 3.841c.9227 0 1.6648-.421 1.6648-1.414v-3.961h-.5716v.611h-.0602c-.1304-.2-.3711-.662-1.1232-.662-.9728 0-1.6447.773-1.6447 1.956 0 1.203.702 1.885 1.6346 1.885.7522 0 .9929-.441 1.1233-.651h.0501v.782c0 .642-.4513.932-1.0731.932-.6995 0-.9452-.368-1.1031-.581l-.4714.331c.2407.403.7146.772 1.5745.772zm-.02-2.116c-.7422 0-1.1232-.562-1.1232-1.364 0-.782.371-1.414 1.1232-1.414.722 0 1.1031.582 1.1031 1.414 0 .852-.3911 1.364-1.1031 1.364zm3.3949-4.543h-.5917v5.135h.5917zm2.7337 5.215c.7822 0 1.3539-.391 1.5344-.973l-.5717-.16c-.1504.401-.4989.601-.9627.601-.6945 0-1.1734-.449-1.201-1.273h2.7955v-.251c0-1.434-.8524-1.926-1.6547-1.926-1.043 0-1.735.823-1.735 2.006 0 1.184.682 1.976 1.7952 1.976zm-1.201-2.317c.0401-.599.4639-1.133 1.1408-1.133.6418 0 1.053.481 1.053 1.133z"/></g></g><g clip-path="url(#r)"><path d="m0 0h138.637v20.5389h-138.637z" fill="#161616" transform="translate(16.6543 435.526)"/><g fill="#fff" fill-opacity=".9"><path clip-rule="evenodd" d="m29.4905 445.795c0 1.418 1.1494 2.568 2.5673 2.568s2.5674-1.15 2.5674-2.568-1.1495-2.567-2.5674-2.567-2.5673 1.149-2.5673 2.567zm2.5673-3.209c-1.7724 0-3.2092 1.437-3.2092 3.209 0 1.773 1.4368 3.21 3.2092 3.21s3.2092-1.437 3.2092-3.21c0-1.772-1.4368-3.209-3.2092-3.209z" fill-rule="evenodd"/><path d="m42.9499 448.526h3.139v-.552h-2.5172v-1.745h2.3166v-.551h-2.3166v-1.735h2.4771v-.552h-3.0989zm4.7664-5.135h-.5917v5.135h.5917zm1.7107 0h-.5917v5.135h.5917zm1.119 5.135h.5917v-3.851h-.5917zm.3009-4.493c.2307 0 .4212-.181.4212-.401 0-.221-.1905-.401-.4212-.401s-.4212.18-.4212.401c0 .22.1905.401.4212.401zm1.4099 5.937h.5917v-2.036h.0501c.1304.211.3811.672 1.1232.672.9628 0 1.6347-.772 1.6347-1.996 0-1.213-.6719-1.985-1.6447-1.985-.7522 0-.9828.461-1.1132.662h-.0702v-.612h-.5716zm.5816-3.37c0-.862.3811-1.444 1.1032-1.444.7522 0 1.1232.632 1.1232 1.444 0 .823-.3811 1.475-1.1232 1.475-.712 0-1.1032-.602-1.1032-1.475zm6.4838-1.063c-.1855-.546-.6017-.912-1.3639-.912-.8123 0-1.414.461-1.414 1.113 0 .531.3159.887 1.0229 1.053l.6418.15c.3886.091.5717.276.5717.542 0 .331-.351.602-.9026.602-.4839 0-.7873-.208-.8926-.622l-.5616.14c.1379.655.677 1.003 1.4642 1.003.8951 0 1.5043-.489 1.5043-1.153 0-.537-.3359-.875-1.0229-1.043l-.5716-.141c-.4564-.112-.6619-.265-.6619-.561 0-.331.351-.572.8223-.572.5165 0 .7296.286.8324.552zm2.6108 3.069c.7823 0 1.3539-.391 1.5344-.973l-.5716-.16c-.1504.401-.4989.602-.9628.602-.6945 0-1.1733-.449-1.2009-1.274h2.7955v-.251c0-1.434-.8524-1.925-1.6547-1.925-1.043 0-1.735.822-1.735 2.005 0 1.184.6819 1.976 1.7951 1.976zm-1.2009-2.317c.0401-.599.4638-1.133 1.1408-1.133.6418 0 1.053.482 1.053 1.133zm7.3465 2.307c.9778 0 1.6948-.722 1.6948-1.705 0-.995-.692-1.725-1.6347-1.725-.346 0-.6819.123-.8925.291h-.0301l.1805-1.514h2.1461v-.552h-2.6676l-.3109 2.527.5817.071c.2131-.153.5766-.264.8925-.261.6544.005 1.1333.501 1.1333 1.173 0 .66-.4613 1.143-1.0931 1.143-.5266 0-.9453-.338-.9929-.802h-.6017c.0376.782.712 1.354 1.5946 1.354z"/></g></g><g clip-path="url(#s)"><path d="m0 0h138.637v20.5389h-138.637z" fill="#161616" transform="translate(16.6543 312.292)"/><g fill="#fff" fill-opacity=".9"><path clip-rule="evenodd" d="m34.6252 319.995h-5.1347v5.134h5.1347zm-5.1347-.642h-.6419v.642 5.134.642h.6419 5.1347.6418v-.642-5.134-.642h-.6418z" fill-rule="evenodd"/><path d="m42.9499 325.292h.5716v-.591h.0702c.1304.21.3811.672 1.1233.672.9627 0 1.6347-.773 1.6347-1.996 0-1.213-.672-1.986-1.6448-1.986-.7521 0-.9828.462-1.1132.662h-.0501v-1.895h-.5917zm.5817-1.925c0-.863.3811-1.444 1.1031-1.444.7522 0 1.1233.632 1.1233 1.444 0 .822-.3811 1.474-1.1233 1.474-.712 0-1.1031-.602-1.1031-1.474zm5.3129 3.45c.9227 0 1.6648-.421 1.6648-1.414v-3.962h-.5717v.612h-.0601c-.1304-.2-.3711-.662-1.1233-.662-.9727 0-1.6447.773-1.6447 1.956 0 1.203.702 1.885 1.6347 1.885.7522 0 .9929-.441 1.1232-.652h.0502v.783c0 .642-.4513.932-1.0731.932-.6995 0-.9452-.368-1.1032-.581l-.4713.331c.2407.403.7145.772 1.5745.772zm-.0201-2.116c-.7421 0-1.1232-.562-1.1232-1.364 0-.782.3711-1.414 1.1232-1.414.7221 0 1.1032.581 1.1032 1.414 0 .852-.3911 1.364-1.1032 1.364zm4.8243.591h.5917v-2.437c0-.521.4112-.902.9728-.902.1579 0 .3209.03.361.04v-.602c-.0677-.005-.2231-.01-.3109-.01-.4613 0-.8625.261-1.0029.642h-.0401v-.582h-.5716zm4.1596.081c.7822 0 1.3539-.391 1.5344-.973l-.5716-.161c-.1505.402-.499.602-.9628.602-.6945 0-1.1734-.449-1.2009-1.273h2.7955v-.251c0-1.434-.8525-1.926-1.6548-1.926-1.043 0-1.7349.823-1.7349 2.006s.6819 1.976 1.7951 1.976zm-1.2009-2.317c.0401-.599.4638-1.133 1.1407-1.133.6419 0 1.0531.481 1.0531 1.133zm5.185 2.317c.7422 0 .9929-.462 1.1232-.672h.0703v.591h.5716v-5.134h-.5917v1.895h-.0502c-.1303-.2-.361-.662-1.1131-.662-.9728 0-1.6448.773-1.6448 1.986 0 1.223.672 1.996 1.6347 1.996zm.0803-.532c-.7422 0-1.1233-.652-1.1233-1.474 0-.812.3711-1.444 1.1233-1.444.722 0 1.1031.581 1.1031 1.444 0 .872-.3911 1.474-1.1031 1.474z"/></g></g><g clip-path="url(#t)"><path d="m0 0h138.637v20.5389h-138.637z" fill="#161616" transform="translate(16.6543 332.832)"/><g fill="#fff" fill-opacity=".9"><path clip-rule="evenodd" d="m29.4905 343.101c0 1.418 1.1494 2.567 2.5673 2.567s2.5674-1.149 2.5674-2.567-1.1495-2.567-2.5674-2.567-2.5673 1.149-2.5673 2.567zm2.5673-3.209c-1.7724 0-3.2092 1.437-3.2092 3.209s1.4368 3.209 3.2092 3.209 3.2092-1.437 3.2092-3.209-1.4368-3.209-3.2092-3.209z" fill-rule="evenodd"/><path d="m42.9499 345.832h3.139v-.552h-2.5172v-1.745h2.3166v-.552h-2.3166v-1.735h2.4771v-.551h-3.0989zm4.7664-5.135h-.5917v5.135h.5917zm1.7107 0h-.5917v5.135h.5917zm1.119 5.135h.5917v-3.851h-.5917zm.3009-4.493c.2307 0 .4212-.181.4212-.401 0-.221-.1905-.402-.4212-.402s-.4212.181-.4212.402c0 .22.1905.401.4212.401zm1.4099 5.937h.5917v-2.036h.0501c.1304.21.3811.672 1.1232.672.9628 0 1.6347-.772 1.6347-1.996 0-1.213-.6719-1.986-1.6447-1.986-.7522 0-.9828.462-1.1132.662h-.0702v-.611h-.5716zm.5816-3.37c0-.862.3811-1.444 1.1032-1.444.7522 0 1.1232.632 1.1232 1.444 0 .822-.3811 1.474-1.1232 1.474-.712 0-1.1032-.601-1.1032-1.474zm6.4838-1.063c-.1855-.547-.6017-.913-1.3639-.913-.8123 0-1.414.462-1.414 1.114 0 .531.3159.887 1.0229 1.053l.6418.15c.3886.09.5717.276.5717.542 0 .331-.351.601-.9026.601-.4839 0-.7873-.208-.8926-.622l-.5616.141c.1379.654.677 1.003 1.4642 1.003.8951 0 1.5043-.489 1.5043-1.154 0-.536-.3359-.875-1.0229-1.043l-.5716-.14c-.4564-.113-.6619-.266-.6619-.562 0-.33.351-.571.8223-.571.5165 0 .7296.286.8324.551zm2.6108 3.069c.7823 0 1.3539-.391 1.5344-.973l-.5716-.16c-.1504.401-.4989.601-.9628.601-.6945 0-1.1733-.449-1.2009-1.273h2.7955v-.251c0-1.434-.8524-1.926-1.6547-1.926-1.043 0-1.735.823-1.735 2.006 0 1.184.6819 1.976 1.7951 1.976zm-1.2009-2.317c.0401-.599.4638-1.133 1.1408-1.133.6418 0 1.053.481 1.053 1.133zm7.3465 2.307c.9778 0 1.6948-.722 1.6948-1.705 0-.995-.692-1.725-1.6347-1.725-.346 0-.6819.123-.8925.291h-.0301l.1805-1.515h2.1461v-.551h-2.6676l-.3109 2.527.5817.07c.2131-.153.5766-.263.8925-.26.6544.005 1.1333.501 1.1333 1.173 0 .659-.4613 1.143-1.0931 1.143-.5266 0-.9453-.338-.9929-.802h-.6017c.0376.782.712 1.354 1.5946 1.354z"/></g></g><g clip-path="url(#u)"><path d="m0 0h154.042v20.5389h-154.042z" fill="#161616" transform="translate(1.25 476.604)"/><g fill="#fff" fill-opacity=".9"><path d="m27.4303 489.604h.9301v-2.181h2.1337v-.78h-2.1337v-1.394h2.3593v-.78h-3.2894zm4.0769 0h.9076v-2.264c0-.489.3685-.835.8675-.835.1529 0 .3434.027.4212.053v-.835c-.0828-.015-.2257-.025-.326-.025-.4412 0-.8098.25-.9502.697h-.0401v-.642h-.88zm3.8669.077c.6042 0 .9652-.283 1.1307-.606h.0301v.529h.8725v-2.578c0-1.018-.8299-1.323-1.5645-1.323-.8098 0-1.4316.361-1.6322 1.063l.8475.12c.0902-.263.346-.489.7897-.489.4212 0 .6519.216.6519.594v.015c0 .261-.2733.274-.9527.346-.7472.081-1.4617.304-1.4617 1.171 0 .757.5541 1.158 1.2887 1.158zm.2357-.666c-.3786 0-.6494-.173-.6494-.507 0-.348.3034-.494.7095-.551.2382-.033.7146-.093.8324-.189v.454c0 .429-.346.793-.8925.793zm2.7455.589h.9076v-2.342c0-.474.3159-.795.7071-.795.3836 0 .6468.259.6468.655v2.482h.8901v-2.402c0-.434.2582-.735.697-.735.366 0 .6568.216.6568.692v2.445h.9102v-2.585c0-.86-.4965-1.316-1.2035-1.316-.5591 0-.9853.275-1.1558.704h-.0401c-.1479-.436-.5215-.704-1.0405-.704-.5165 0-.9026.265-1.0631.704h-.0451v-.654h-.8675zm8.0765.075c.8976 0 1.5143-.439 1.6748-1.108l-.8474-.095c-.1229.325-.4237.496-.8149.496-.5866 0-.9753-.386-.9828-1.046h2.6827v-.278c0-1.351-.8123-1.945-1.76-1.945-1.1032 0-1.8228.809-1.8228 1.998 0 1.208.7096 1.978 1.8704 1.978zm-.9678-2.364c.0276-.492.3912-.905.9327-.905.5215 0 .8725.381.8775.905zm7.045 2.359c1.0856 0 1.8428-.737 1.8428-1.758 0-.987-.687-1.699-1.6197-1.699-.4161 0-.7847.165-.9753.391h-.03l.1479-1.362h2.2088v-.777h-2.9785l-.2683 2.648.8399.138c.173-.191.499-.319.8073-.316.5642.002.9703.418.9678 1 .0025.574-.3936.983-.9427.983-.4638 0-.8374-.294-.87-.715h-.9026c.0251.853.7697 1.467 1.7726 1.467z"/><path clip-rule="evenodd" d="m15.3705 483.343v.321 1.284h2.5673v-1.284-.321h.6418v.321 1.284h1.2837.321v.641h-.321-1.2837v2.568h1.2837.321v.642h-.321-1.2837v1.283.321h-.6418v-.321-1.283h-2.5673v1.283.321h-.6419v-.321-1.283h-1.2837-.3209v-.642h.3209 1.2837v-2.568h-1.2837-.3209v-.641h.3209 1.2837v-1.284-.321zm2.5673 4.814v-2.568h-2.5673v2.568z" fill-rule="evenodd"/><path d="m8.31052 486.873-2.56736-1.925v3.851z"/></g></g><g clip-path="url(#v)"><path d="m0 0h138.637v10.2694h-138.637z" fill="#161616" transform="translate(16.6543 517.682)"/><path d="m28.027 524.682h.6338v-1.832h1.7847v-.544h-1.7847v-1.28h1.9714v-.545h-2.6052zm4.5962-4.201h-.6339v4.201h.6339zm1.9418 0h-.7344l1.3313 2.1-1.3395 2.101h.7385l1.0093-1.621h.0328l1.0092 1.621h.7385l-1.3169-2.101 1.3087-2.1h-.7344l-1.0051 1.643h-.0328zm3.9839 4.201h2.6585v-.546h-2.0246v-1.286h1.8626v-.544h-1.8626v-1.28h2v-.545h-2.6339zm5.4183 0c1.28 0 2.0206-.794 2.0206-2.107 0-1.307-.7406-2.094-1.9775-2.094h-1.4031v4.201zm-.7262-.554v-3.093h.7303c.919 0 1.3929.549 1.3929 1.54 0 .995-.4739 1.553-1.4319 1.553z" fill="#fff" fill-opacity=".9"/></g><g clip-path="url(#w)"><path d="m0 0h138.637v10.2694h-138.637z" fill="#161616" transform="translate(16.6543 548.49)"/><path d="m30.3183 552.392h.6113c-.0184-.673-.6133-1.161-1.4667-1.161-.8431 0-1.4893.482-1.4893 1.206 0 .585.4185.928 1.0934 1.11l.4964.136c.4493.118.7959.266.7959.64 0 .41-.3918.681-.9313.681-.4882 0-.8943-.218-.9313-.675h-.6359c.041.761.6298 1.23 1.5713 1.23.9867 0 1.555-.518 1.555-1.23 0-.757-.6749-1.051-1.2083-1.182l-.4102-.107c-.3283-.084-.7652-.238-.7631-.64 0-.356.3261-.621.8431-.621.482 0 .8246.226.8697.613zm5.4932.263c-.1436-.899-.8472-1.424-1.7354-1.424-1.0872 0-1.8893.815-1.8893 2.158 0 1.344.798 2.158 1.8893 2.158.9231 0 1.598-.578 1.7354-1.409l-.64-.002c-.1087.537-.56.833-1.0913.833-.7201 0-1.2637-.552-1.2637-1.58 0-1.019.5416-1.579 1.2657-1.579.5354 0 .9847.301 1.0893.845zm1.3361 2.835h.6339v-1.59h.8616.041l.8533 1.59h.7221l-.9313-1.701c.5149-.191.7713-.619.7713-1.183 0-.774-.48-1.317-1.4544-1.317h-1.4975zm.6339-2.136v-1.522h.7959c.6257 0 .8841.298.8841.774 0 .473-.2584.748-.8759.748zm7.3163.035c0-1.343-.8041-2.158-1.8913-2.158-1.0914 0-1.8934.815-1.8934 2.158 0 1.342.802 2.158 1.8934 2.158 1.0872 0 1.8913-.814 1.8913-2.158zm-.6277 0c0 1.024-.5416 1.58-1.2636 1.58-.7242 0-1.2637-.556-1.2637-1.58 0-1.023.5395-1.579 1.2637-1.579.722 0 1.2636.556 1.2636 1.579zm1.9956 2.101h2.5375v-.546h-1.9036v-3.655h-.6339zm3.8383 0h2.5375v-.546h-1.9037v-3.655h-.6338zm6.1296-3.098h.6113c-.0185-.673-.6134-1.161-1.4667-1.161-.8431 0-1.4893.482-1.4893 1.206 0 .585.4185.928 1.0934 1.11l.4964.136c.4492.118.7959.266.7959.64 0 .41-.3918.681-.9313.681-.4882 0-.8944-.218-.9313-.675h-.6359c.041.761.6297 1.23 1.5713 1.23.9867 0 1.5549-.518 1.5549-1.23 0-.757-.6749-1.051-1.2082-1.182l-.4103-.107c-.3282-.084-.7651-.238-.7631-.64 0-.356.3262-.621.8431-.621.4821 0 .8246.226.8698.613z" fill="#fff" fill-opacity=".9"/></g><path clip-rule="evenodd" d="m142.454 488.798c-1.476 0-2.774-.766-3.516-1.925.742-1.159 2.04-1.926 3.516-1.926s2.774.767 3.516 1.926c-.742 1.159-2.04 1.925-3.516 1.925zm0-4.493c1.847 0 3.451 1.041 4.259 2.568-.808 1.527-2.412 2.567-4.259 2.567s-3.452-1.04-4.259-2.567c.807-1.527 2.412-2.568 4.259-2.568zm0 3.851c.709 0 1.284-.574 1.284-1.283s-.575-1.284-1.284-1.284-1.284.575-1.284 1.284.575 1.283 1.284 1.283z" fill="#000" fill-opacity=".2" fill-rule="evenodd"/></g><path d="m0 0h154.042v141.205h-154.042z" fill="#2c2c2c" transform="translate(1.25 26.6736)"/><g clip-path="url(#x)"><path d="m0 0h154.042v115.531h-154.042z" fill="#161616" transform="translate(1.25 52.989)"/><path d="m0 0h154.042v20.5389h-154.042z" fill="#161616" transform="translate(1.25 76.0955)"/><path d="m27.4879 89.2302h.7748v-1.8052h1.053c1.1909 0 1.7801-.7195 1.7801-1.6672 0-.9452-.5842-1.6623-1.7776-1.6623h-1.8303zm.7748-2.462v-2.0083h.9728c.7672 0 1.0806.4162 1.0806.9979 0 .5816-.3134 1.0104-1.0706 1.0104zm4.8027 2.5473c.6368 0 .9953-.3235 1.1382-.6118h.0301v.5265h.7321v-2.5573c0-1.1207-.8825-1.3439-1.4942-1.3439-.697 0-1.3389.2808-1.5896.9829l.7045.1604c.1103-.2733.3911-.5365.8951-.5365.4839 0 .7321.2532.7321.6895v.0175c0 .2733-.2808.2683-.9728.3485-.7296.0852-1.4767.2758-1.4767 1.1508 0 .7572.5691 1.1734 1.3012 1.1734zm.163-.6018c-.4238 0-.7296-.1905-.7296-.5616 0-.4011.356-.544.7897-.6017.2432-.0326.8199-.0978.9277-.2056v.4964c0 .4564-.3636.8725-.9878.8725zm4.3859 2.0409c.9803 0 1.7374-.4488 1.7374-1.4391v-3.9363h-.7346v.6243h-.0551c-.1329-.2382-.3987-.6745-1.1157-.6745-.9302 0-1.6147.7346-1.6147 1.9607 0 1.2285.6995 1.8829 1.6097 1.8829.707 0 .9803-.3987 1.1157-.6444h.0476v.7572c0 .6042-.4137.865-.9828.865-.6243 0-.8675-.3134-1.0004-.5341l-.6443.2658c.203.4713.717.8725 1.6372.8725zm-.0076-2.2038c-.6694 0-1.0179-.514-1.0179-1.2712 0-.7396.341-1.3137 1.0179-1.3137.6544 0 1.0054.534 1.0054 1.3137 0 .7948-.3585 1.2712-1.0054 1.2712zm4.4455.7571c.8399 0 1.4341-.4136 1.6046-1.0404l-.7096-.1279c-.1353.3635-.4613.5491-.8875.5491-.6418 0-1.0731-.4162-1.0931-1.1583h2.7378v-.2658c0-1.3915-.8324-1.9356-1.7049-1.9356-1.0731 0-1.7801.8174-1.7801 2.0008 0 1.1959.697 1.9781 1.8328 1.9781zm-1.0831-2.3392c.0301-.5465.4262-1.0204 1.0354-1.0204.5817 0 .9628.4313.9653 1.0204zm7.4442-2.8732h-.7547l-1.2811.8374v.7421l1.2285-.8023h.0301v4.3575h.7772z" fill="#fff" fill-opacity=".9"/><path clip-rule="evenodd" d="m14.841 85.6098 1.2082 1.2082 2.4164-2.4164.7551.7551-3.1715 3.1715-1.9633-1.9633z" fill="#fff" fill-opacity=".9" fill-rule="evenodd"/><path d="m0 0h154.042v20.5389h-154.042z" fill="#161616" transform="translate(1.25 96.6343)"/><path d="m28.1872 109.769h3.139v-.552h-2.5172v-1.745h2.3166v-.551h-2.3166v-1.735h2.4771v-.552h-3.0989zm4.6159-3.851h-.6819l1.2235 1.926-1.2235 1.925h.6819l.9227-1.494.9226 1.494h.682l-1.2436-1.925 1.2436-1.926h-.682l-.9226 1.575zm3.4069 5.295h.5917v-2.036h.0501c.1304.211.3811.672 1.1232.672.9628 0 1.6347-.772 1.6347-1.995 0-1.214-.6719-1.986-1.6447-1.986-.7521 0-.9828.461-1.1132.662h-.0702v-.612h-.5716zm.5817-3.369c0-.863.381-1.445 1.1031-1.445.7522 0 1.1232.632 1.1232 1.445 0 .822-.3811 1.474-1.1232 1.474-.712 0-1.1031-.602-1.1031-1.474zm4.3476-3.21h-.5917v5.135h.5917zm2.6835 5.215c1.043 0 1.745-.792 1.745-1.985 0-1.204-.702-1.996-1.745-1.996s-1.745.792-1.745 1.996c0 1.193.702 1.985 1.745 1.985zm0-.531c-.7922 0-1.1533-.682-1.1533-1.454 0-.773.3611-1.465 1.1533-1.465.7923 0 1.1533.692 1.1533 1.465 0 .772-.361 1.454-1.1533 1.454zm2.6836.451h.5917v-2.437c0-.521.4111-.903.9727-.903.158 0 .321.031.3611.041v-.602c-.0677-.005-.2232-.01-.3109-.01-.4613 0-.8625.261-1.0029.642h-.0401v-.582h-.5716zm3.7954.09c.6719 0 1.0229-.361 1.1433-.611h.0301v.521h.5917v-2.537c0-1.224-.9327-1.364-1.4241-1.364-.5817 0-1.2436.2-1.5444.902l.5616.201c.1303-.281.4387-.582 1.0029-.582.544 0 .8123.289.8123.783v.02c0 .285-.2909.26-.9929.351-.7145.092-1.4943.25-1.4943 1.133 0 .752.5817 1.183 1.3138 1.183zm.0903-.531c-.4714 0-.8124-.211-.8124-.622 0-.451.4112-.592.8725-.652.2508-.03.9227-.1 1.023-.221v.542c0 .481-.3811.953-1.0831.953zm4.4648-3.41h-.8223v-.923h-.5917v.923h-.5817v.501h.5817v2.407c0 .672.5415.993 1.043.993.2206 0 .361-.04.4413-.07l-.1204-.532c-.0501.01-.1304.031-.2607.031-.2608 0-.5115-.081-.5115-.582v-2.247h.8223zm.9254 3.851h.5917v-3.851h-.5917zm.3009-4.493c.2306 0 .4212-.18.4212-.401s-.1906-.401-.4212-.401c-.2307 0-.4212.18-.4212.401s.1905.401.4212.401zm2.9743 4.573c1.043 0 1.745-.792 1.745-1.985 0-1.204-.702-1.996-1.745-1.996s-1.745.792-1.745 1.996c0 1.193.702 1.985 1.745 1.985zm0-.531c-.7923 0-1.1533-.682-1.1533-1.454 0-.773.361-1.465 1.1533-1.465s1.1533.692 1.1533 1.465c0 .772-.361 1.454-1.1533 1.454zm3.2752-1.866c0-.672.4162-1.053.9828-1.053.5491 0 .8826.359.8826.963v2.407h.5917v-2.447c0-.983-.524-1.454-1.3038-1.454-.5816 0-.9427.261-1.1232.652h-.0501v-.602h-.5717v3.851h.5917zm6.3014-.672c-.1855-.546-.6017-.912-1.3639-.912-.8123 0-1.414.461-1.414 1.113 0 .532.3159.888 1.0229 1.053l.6418.151c.3886.09.5717.275.5717.541 0 .331-.351.602-.9026.602-.4839 0-.7873-.208-.8926-.622l-.5616.14c.1379.655.677 1.003 1.4642 1.003.8951 0 1.5043-.489 1.5043-1.153 0-.537-.3359-.875-1.0229-1.043l-.5716-.14c-.4564-.113-.6619-.266-.6619-.562 0-.331.351-.572.8223-.572.5165 0 .7296.286.8324.552zm3.0974 2.989h1.8553c1.2135 0 1.715-.592 1.715-1.364 0-.812-.5616-1.253-1.033-1.284v-.05c.4413-.12.8324-.411.8324-1.073 0-.752-.5014-1.364-1.5745-1.364h-1.7952zm.6218-.552v-1.785h1.2636c.672 0 1.0932.452 1.0932.973 0 .451-.3109.812-1.1233.812zm0-2.326v-1.705h1.1734c.6819 0 .9828.361.9828.812 0 .542-.4413.893-1.0029.893z" fill="#fff" fill-opacity=".9"/><path d="m0 0h154.042v20.5389h-154.042z" fill="#161616" transform="translate(1.25 117.173)"/><path d="m30.9953 126.457h.6017c-.0276-.775-.7421-1.354-1.735-1.354-.9828 0-1.755.572-1.755 1.434 0 .692.5014 1.103 1.3037 1.334l.6318.18c.5416.151 1.023.341 1.023.853 0 .561-.5416.933-1.2536.933-.6118 0-1.1533-.271-1.2035-.853h-.6418c.0602.842.7421 1.414 1.8453 1.414 1.1834 0 1.8553-.652 1.8553-1.484 0-.963-.9126-1.274-1.4442-1.414l-.5214-.141c-.3811-.1-.9929-.3-.9929-.852 0-.491.4513-.852 1.1333-.852.6217 0 1.0931.295 1.1533.802zm1.6493 3.851h.5917v-3.851h-.5917zm.3008-4.493c.2307 0 .4212-.181.4212-.401 0-.221-.1905-.401-.4212-.401-.2306 0-.4212.18-.4212.401 0 .22.1906.401.4212.401zm2.9644 6.017c.9226 0 1.6647-.421 1.6647-1.414v-3.961h-.5716v.612h-.0602c-.1304-.201-.371-.662-1.1232-.662-.9728 0-1.6447.772-1.6447 1.955 0 1.204.702 1.886 1.6347 1.886.7521 0 .9928-.442 1.1232-.652h.0501v.782c0 .642-.4513.933-1.073.933-.6996 0-.9453-.369-1.1032-.582l-.4714.331c.2407.404.7146.772 1.5746.772zm-.0201-2.116c-.7421 0-1.1232-.561-1.1232-1.364 0-.782.371-1.414 1.1232-1.414.7221 0 1.1032.582 1.1032 1.414 0 .853-.3912 1.364-1.1032 1.364zm3.3949-1.725c0-.672.4162-1.053.9828-1.053.5491 0 .8826.359.8826.963v2.407h.5917v-2.447c0-.983-.524-1.454-1.3038-1.454-.5816 0-.9427.26-1.1232.652h-.0501v-.602h-.5717v3.851h.5917zm5.7799-.16h-2.2464v.551h2.2464zm1.0764 2.477h.5917v-3.851h-.5917zm.3009-4.493c.2307 0 .4212-.181.4212-.401 0-.221-.1905-.401-.4212-.401s-.4212.18-.4212.401c0 .22.1905.401.4212.401zm2.0016 2.176c0-.672.4162-1.053.9828-1.053.5491 0 .8825.359.8825.963v2.407h.5917v-2.447c0-.983-.524-1.454-1.3037-1.454-.5817 0-.9427.26-1.1233.652h-.0501v-.602h-.5716v3.851h.5917zm8.3223-.672c-.1855-.546-.6017-.912-1.3639-.912-.8123 0-1.414.461-1.414 1.113 0 .531.3159.887 1.0229 1.053l.6419.15c.3886.091.5716.276.5716.542 0 .331-.351.602-.9026.602-.4839 0-.7872-.209-.8926-.622l-.5616.14c.1379.655.677 1.003 1.4642 1.003.8951 0 1.5043-.489 1.5043-1.153 0-.537-.3359-.875-1.0229-1.043l-.5716-.141c-.4563-.112-.6619-.265-.6619-.561 0-.331.351-.572.8223-.572.5165 0 .7296.286.8324.552zm2.5607 3.069c.8525 0 1.4141-.521 1.5144-1.203h-.5917c-.1104.421-.4614.672-.9227.672-.702 0-1.1533-.582-1.1533-1.475 0-.872.4613-1.444 1.1533-1.444.5215 0 .8324.321.9227.672h.5917c-.1003-.722-.7121-1.203-1.5244-1.203-1.043 0-1.735.822-1.735 1.995 0 1.154.6619 1.986 1.745 1.986zm2.4146-.08h.5917v-2.437c0-.522.4112-.903.9728-.903.158 0 .3209.03.3611.04v-.601c-.0677-.005-.2232-.01-.3109-.01-.4614 0-.8625.26-1.0029.641h-.0401v-.581h-.5717zm4.1597.08c.7822 0 1.3538-.391 1.5344-.973l-.5717-.16c-.1504.401-.4989.602-.9627.602-.6945 0-1.1734-.449-1.201-1.274h2.7955v-.251c0-1.434-.8524-1.925-1.6547-1.925-1.043 0-1.735.822-1.735 2.005 0 1.184.682 1.976 1.7952 1.976zm-1.201-2.317c.0401-.599.4638-1.133 1.1408-1.133.6418 0 1.053.482 1.053 1.133zm5.3455 2.317c.7823 0 1.3539-.391 1.5344-.973l-.5716-.16c-.1504.401-.4989.602-.9628.602-.6944 0-1.1733-.449-1.2009-1.274h2.7955v-.251c0-1.434-.8524-1.925-1.6547-1.925-1.043 0-1.735.822-1.735 2.005 0 1.184.682 1.976 1.7951 1.976zm-1.2009-2.317c.0401-.599.4638-1.133 1.1408-1.133.6418 0 1.053.482 1.053 1.133zm4.3226-.08c0-.672.4162-1.053.9828-1.053.5491 0 .8825.359.8825.963v2.407h.5917v-2.447c0-.983-.524-1.454-1.3037-1.454-.5817 0-.9427.26-1.1232.652h-.0502v-.602h-.5716v3.851h.5917z" fill="#fff" fill-opacity=".9"/><path d="m0 0h154.042v20.5389h-154.042z" fill="#161616" transform="translate(1.25 137.712)"/><path d="m32.5196 148.279c0-1.624-.9527-2.637-2.2665-2.637-1.3137 0-2.2665 1.013-2.2665 2.637 0 1.625.9528 2.638 2.2665 2.638 1.3138 0 2.2665-1.013 2.2665-2.638zm-.6017 0c0 1.334-.7321 2.056-1.6648 2.056-.9326 0-1.6647-.722-1.6647-2.056s.7321-2.056 1.6647-2.056c.9327 0 1.6648.722 1.6648 2.056zm2.194-2.567h-.5917v5.135h.5917zm2.5732 5.215c.7421 0 .9928-.461 1.1232-.672h.0702v.592h.5717v-5.135h-.5917v1.895h-.0502c-.1304-.2-.361-.662-1.1132-.662-.9728 0-1.6447.773-1.6447 1.986 0 1.224.6719 1.996 1.6347 1.996zm.0802-.532c-.7421 0-1.1232-.651-1.1232-1.474 0-.812.3711-1.444 1.1232-1.444.7221 0 1.1032.582 1.1032 1.444 0 .873-.3911 1.474-1.1032 1.474zm7.6348-2.537c-.1855-.546-.6017-.913-1.3639-.913-.8123 0-1.414.462-1.414 1.114 0 .531.3159.887 1.0229 1.053l.6418.15c.3886.09.5717.276.5717.542 0 .331-.351.601-.9026.601-.4839 0-.7873-.208-.8926-.621l-.5616.14c.1379.654.677 1.003 1.4642 1.003.8951 0 1.5043-.489 1.5043-1.153 0-.537-.3359-.875-1.0229-1.043l-.5717-.141c-.4563-.113-.6618-.266-.6618-.561 0-.331.351-.572.8223-.572.5165 0 .7296.286.8324.552zm2.671-.862h-.8224v-.923h-.5917v.923h-.5816v.501h.5816v2.407c0 .672.5416.993 1.043.993.2207 0 .3611-.04.4413-.07l-.1203-.532c-.0502.01-.1304.03-.2608.03-.2607 0-.5115-.08-.5115-.581v-2.247h.8224zm3.3523 2.276c0 .722-.5516 1.053-.9928 1.053-.4914 0-.8424-.361-.8424-.922v-2.407h-.5917v2.447c0 .982.5215 1.454 1.2435 1.454.5817 0 .9628-.311 1.1433-.702h.0401v.652h.5917v-3.851h-.5917zm3.4257-2.276h-.8625v-.391c0-.382.1604-.582.5516-.582.1705 0 .2707.04.3309.06l.1705-.511c-.0903-.041-.2708-.101-.5616-.101-.5516 0-1.0831.331-1.0831.993v.532h-.6218v.501h.6218v3.35h.5917v-3.35h.8625zm2.5794 0h-.8624v-.391c0-.382.1604-.582.5515-.582.1705 0 .2708.04.331.06l.1705-.511c-.0903-.041-.2708-.101-.5616-.101-.5516 0-1.0831.331-1.0831.993v.532h-.6218v.501h.6218v3.35h.5917v-3.35h.8624z" fill="#fff" fill-opacity=".9"/><path d="m1.25 167.878h154.042v.64184h-154.042z" fill="#2c2c2c"/><path d="m0 0h154.042v25.6736h-154.042z" fill="#161616" transform="translate(1.25 52.3474)"/><g fill="#fff" fill-opacity=".9"><path d="m12.026 68.0496h.9302v-1.735h.9828c1.1859 0 1.8227-.7121 1.8227-1.6999 0-.9803-.6293-1.6999-1.8102-1.6999h-1.9255zm.9302-2.4997v-1.8578h.8524c.697 0 1.0054.376 1.0054.9226s-.3084.9352-1.0004.9352zm4.6479 2.5774c.6042 0 .9652-.2833 1.1307-.6068h.0301v.5291h.8725v-2.5774c0-1.0179-.8299-1.3238-1.5645-1.3238-.8098 0-1.4316.361-1.6322 1.063l.8474.1204c.0903-.2633.346-.4889.7898-.4889.4212 0 .6519.2156.6519.5942v.015c0 .2608-.2733.2733-.9528.346-.7471.0802-1.4616.3034-1.4616 1.1709 0 .7571.554 1.1583 1.2887 1.1583zm.2356-.6669c-.3786 0-.6493-.173-.6493-.5065 0-.3485.3033-.4939.7095-.5516.2382-.0326.7145-.0927.8324-.188v.4538c0 .4287-.346.7923-.8926.7923zm4.4204 2.1135c1.0405 0 1.8077-.4763 1.8077-1.4617v-3.9137h-.8951v.6368h-.0501c-.1379-.2783-.4263-.6869-1.1057-.6869-.89 0-1.5896.697-1.5896 1.9631 0 1.2561.6996 1.8829 1.5871 1.8829.6594 0 .9678-.3535 1.1082-.6368h.0451v.7296c0 .5666-.3761.7998-.8926.7998-.5465 0-.7872-.2583-.8975-.4839l-.8174.198c.1655.5391.7196.9728 1.6999.9728zm.0075-2.2915c-.5992 0-.9151-.4664-.9151-1.1759 0-.6995.3109-1.2135.9151-1.2135.5842 0 .9051.4839.9051 1.2135 0 .7346-.3259 1.1759-.9051 1.1759zm4.4705.8424c.8976 0 1.5144-.4388 1.6748-1.1082l-.8474-.0953c-.1228.326-.4237.4964-.8148.4964-.5867 0-.9753-.3861-.9828-1.0454h2.6826v-.2783c0-1.3514-.8123-1.9456-1.76-1.9456-1.1032 0-1.8227.8098-1.8227 1.9982 0 1.2085.7095 1.9782 1.8703 1.9782zm-.9677-2.3643c.0275-.4914.3911-.9051.9326-.9051.5215 0 .8725.3811.8776.9051zm6.527-.5441c-.1254-.6518-.6469-1.068-1.5494-1.068-.9277 0-1.5595.4563-1.557 1.1683-.0025.5616.3435.9327 1.0831 1.0856l.6569.1379c.3535.0778.519.2207.519.4388 0 .2632-.2858.4613-.7171.4613-.4162 0-.687-.1805-.7647-.5265l-.885.0852c.1128.7071.707 1.1258 1.6522 1.1258.9628 0 1.6422-.499 1.6447-1.2285-.0025-.5491-.356-.8851-1.0831-1.043l-.6568-.1404c-.3912-.0878-.5466-.2232-.5441-.4463-.0025-.2608.2858-.4413.6644-.4413.4187 0 .6393.2282.7095.4814z"/><path clip-rule="evenodd" d="m142.134 64.8633v-3.2092h.642v3.2092h3.209v.6418h-3.209v3.2092h-.642v-3.2092h-3.209v-.6418z" fill-rule="evenodd"/></g></g><path d="m0 0h154.042v25.6736h-154.042z" fill="#161616" transform="translate(1.25 26.6736)"/><g fill="#fff"><path d="m45.8934 42.3757.4713-1.3589h2.0058l.4688 1.3589h.8224l-1.8478-5.1347h-.8951l-1.8478 5.1347zm.697-2.0107.7571-2.1913h.0402l.7571 2.1913zm6.6461-.9001c-.1554-.5992-.6243-.9904-1.4567-.9904-.87 0-1.4867.4589-1.4867 1.1408 0 .5466.3309.9101 1.053 1.0706l.6518.1429c.3711.0827.5441.2482.5441.4889 0 .2984-.3184.5315-.8098.5315-.4488 0-.7371-.193-.8274-.5716l-.7246.1103c.1254.682.692 1.0656 1.557 1.0656.9302 0 1.5745-.494 1.5745-1.191 0-.544-.346-.88-1.053-1.0429l-.6118-.1405c-.4237-.1002-.6067-.2431-.6042-.5039-.0025-.2958.3184-.5064.7446-.5064.4664 0 .682.2582.7697.5164zm3.8205 0c-.1554-.5992-.6243-.9904-1.4567-.9904-.8699 0-1.4867.4589-1.4867 1.1408 0 .5466.3309.9101 1.053 1.0706l.6519.1429c.371.0827.544.2482.544.4889 0 .2984-.3184.5315-.8098.5315-.4488 0-.7371-.193-.8274-.5716l-.7245.1103c.1253.682.6919 1.0656 1.5569 1.0656.9302 0 1.5745-.494 1.5745-1.191 0-.544-.346-.88-1.053-1.0429l-.6117-.1405c-.4237-.1002-.6068-.2431-.6043-.5039-.0025-.2958.3184-.5064.7447-.5064.4663 0 .6819.2582.7697.5164zm2.5945 2.9886c.8399 0 1.4341-.4137 1.6046-1.0405l-.7095-.1279c-.1354.3635-.4613.5491-.8875.5491-.6419 0-1.0731-.4162-1.0932-1.1583h2.7379v-.2658c0-1.3915-.8324-1.9356-1.7049-1.9356-1.0731 0-1.7801.8174-1.7801 2.0008 0 1.1959.697 1.9782 1.8327 1.9782zm-1.0831-2.3393c.0301-.5465.4263-1.0204 1.0355-1.0204.5817 0 .9628.4313.9653 1.0204zm5.4001-1.5895h-.7898v-.9227h-.7496v.9227h-.5641v.6017h.5641v2.274c-.0025.6995.5315 1.038 1.1232 1.0255.2382-.0025.3986-.0477.4864-.0803l-.1354-.6192c-.0501.01-.1429.0326-.2633.0326-.2431 0-.4613-.0803-.4613-.514v-2.1186h.7898zm3.6883.9402c-.1555-.5992-.6243-.9904-1.4567-.9904-.87 0-1.4868.4589-1.4868 1.1408 0 .5466.331.9101 1.053 1.0706l.6519.1429c.3711.0827.5441.2482.5441.4889 0 .2984-.3184.5315-.8098.5315-.4488 0-.7372-.193-.8274-.5716l-.7246.1103c.1254.682.692 1.0656 1.557 1.0656.9301 0 1.5745-.494 1.5745-1.191 0-.544-.346-.88-1.053-1.0429l-.6118-.1405c-.4237-.1002-.6067-.2431-.6042-.5039-.0025-.2958.3184-.5064.7446-.5064.4663 0 .682.2582.7697.5164z" fill-opacity=".3"/><path d="m12.026 42.3757h3.1916v-.7797h-2.2614v-4.355h-.9302zm5.1023.0778c.6042 0 .9653-.2834 1.1308-.6068h.03v.529h.8725v-2.5774c0-1.0179-.8298-1.3238-1.5644-1.3238-.8099 0-1.4316.3611-1.6322 1.0631l.8474.1203c.0903-.2632.346-.4889.7898-.4889.4212 0 .6518.2157.6518.5942v.0151c0 .2607-.2732.2733-.9527.346-.7471.0802-1.4617.3033-1.4617 1.1708 0 .7572.5541 1.1584 1.2887 1.1584zm.2357-.667c-.3786 0-.6494-.173-.6494-.5064 0-.3485.3034-.4939.7096-.5516.2381-.0326.7145-.0928.8323-.188v.4538c0 .4287-.3459.7922-.8925.7922zm3.1718 2.0334c.707 0 1.1157-.3636 1.3338-.9778l1.5469-4.3124-.9702-.005-.8901 2.9083h-.0401l-.8876-2.9083h-.9627l1.3965 3.9313-.0777.2081c-.168.4387-.4338.4688-.8299.3535l-.2106.707c.1228.0501.3435.0953.5917.0953zm5.1199-1.369c.8975 0 1.5143-.4387 1.6748-1.1081l-.8475-.0953c-.1228.3259-.4237.4964-.8148.4964-.5867 0-.9753-.3861-.9828-1.0455h2.6827v-.2783c0-1.3513-.8124-1.9456-1.7601-1.9456-1.1031 0-1.8227.8099-1.8227 1.9983 0 1.2084.7095 1.9781 1.8704 1.9781zm-.9678-2.3642c.0276-.4914.3911-.9051.9327-.9051.5215 0 .8725.3811.8775.9051zm3.4833 2.289h.9076v-2.264c0-.4889.3686-.8349.8675-.8349.1529 0 .3435.0276.4212.0527v-.8349c-.0827-.015-.2257-.0251-.3259-.0251-.4413 0-.8099.2508-.9503.697h-.0401v-.6418h-.88zm5.8783-2.8331c-.1254-.6519-.6469-1.0681-1.5494-1.0681-.9277 0-1.5595.4564-1.557 1.1684-.0025.5616.3435.9327 1.0831 1.0856l.6569.1379c.3535.0777.519.2206.519.4388 0 .2632-.2858.4613-.7171.4613-.4162 0-.687-.1805-.7647-.5265l-.885.0852c.1128.707.707 1.1257 1.6522 1.1257.9628 0 1.6422-.4989 1.6447-1.2285-.0025-.549-.356-.885-1.0831-1.043l-.6569-.1404c-.3911-.0877-.5465-.2231-.544-.4462-.0025-.2608.2858-.4413.6644-.4413.4187 0 .6393.2281.7095.4814z" fill-opacity=".9"/><path clip-rule="evenodd" d="m142.228 41.021-1.925-1.9255.454-.4539 1.698 1.6986 1.699-1.6986.454.4539-1.926 1.9255-.227.2269z" fill-opacity=".3" fill-rule="evenodd"/><path d="m115.592 42.3757h.622v-1.8753h1.123c1.196 0 1.735-.7271 1.735-1.6347s-.539-1.6247-1.745-1.6247h-1.735zm.622-2.4269v-2.1562h1.093c.835 0 1.153.4563 1.153 1.0731 0 .6167-.318 1.0831-1.143 1.0831zm4.948 2.5172c.672 0 1.023-.361 1.143-.6118h.03v.5215h.592v-2.5372c0-1.2236-.933-1.364-1.424-1.364-.582 0-1.244.2006-1.545.9026l.562.2006c.13-.2808.439-.5817 1.003-.5817.544 0 .812.2884.812.7823v.02c0 .2859-.291.2608-.993.351-.714.0928-1.494.2508-1.494 1.1333 0 .7522.582 1.1834 1.314 1.1834zm.09-.5315c-.471 0-.812-.2106-.812-.6218 0-.4513.411-.5917.872-.6519.251-.0301.923-.1003 1.023-.2206v.5415c0 .4814-.381.9528-1.083.9528zm4.344 1.9656c.923 0 1.665-.4212 1.665-1.4141v-3.9613h-.571v.6117h-.061c-.13-.2005-.371-.6619-1.123-.6619-.973 0-1.645.7723-1.645 1.9557 0 1.2034.702 1.8854 1.635 1.8854.752 0 .993-.4413 1.123-.6519h.051v.7822c0 .6419-.452.9327-1.074.9327-.699 0-.945-.3685-1.103-.5817l-.471.331c.241.4036.714.7722 1.574.7722zm-.02-2.1161c-.742 0-1.123-.5616-1.123-1.3639 0-.7822.371-1.414 1.123-1.414.722 0 1.104.5816 1.104 1.414 0 .8525-.392 1.3639-1.104 1.3639zm4.418.672c.782 0 1.354-.3912 1.535-.9728l-.572-.1605c-.15.4012-.499.6017-.963.6017-.694 0-1.173-.4487-1.201-1.2736h2.796v-.2507c0-1.4341-.853-1.9256-1.655-1.9256-1.043 0-1.735.8224-1.735 2.0058s.682 1.9757 1.795 1.9757zm-1.201-2.3167c.04-.5992.464-1.1332 1.141-1.1332.642 0 1.053.4814 1.053 1.1332zm7.547-2.8983h-.621l-1.284.8525v.6318l1.253-.8324h.031v4.4828h.621z" fill-opacity=".9"/></g></g><rect height="658.5" rx="6.25" stroke="url(#d)" stroke-width=".5" width="811.5" x="1" y=".75"/></g></svg>
