<svg width="97" height="96" viewBox="0 0 97 96" fill="none" xmlns="http://www.w3.org/2000/svg">
<path opacity="0.1" d="M91.0609 25.1508C91.0609 25.1508 88.1675 11.3197 75.6604 6.46015C69.7803 4.21727 59.0466 3.09583 48.4997 3.00238C37.9527 3.09583 27.219 4.21727 21.3389 6.46015C8.83185 11.3197 5.93843 25.1508 5.93843 25.1508C4.07171 33.0009 3.41836 40.9444 3.5117 47.9534C3.41836 55.0558 3.97838 62.9993 5.93843 70.8494C5.93843 70.8494 8.83185 84.6805 21.3389 89.54C27.219 91.7829 37.9527 92.9043 48.4997 92.9978C59.0466 92.9043 69.7803 91.8764 75.6604 89.54C88.1675 84.6805 91.0609 70.8494 91.0609 70.8494C92.9276 62.9993 93.581 55.0558 93.4876 48.0468C93.581 40.9444 93.021 33.0009 91.0609 25.1508ZM65.7668 64.8684C65.7668 66.3636 64.7401 67.5785 63.3401 67.5785H33.7526C32.4459 67.5785 31.3258 66.3636 31.3258 64.8684L31.1392 44.9629C31.1392 43.6545 32.3525 42.5331 33.8459 42.5331H38.8861V37.9539C38.8861 32.627 43.1795 28.3282 48.4997 28.3282C53.8198 28.3282 58.1133 32.627 58.1133 37.9539V42.5331H63.1534C64.6468 42.5331 65.8602 43.5611 65.8602 44.9629L65.7668 64.8684Z" fill="url(#paint0_radial)"/>
<path fill-rule="evenodd" clip-rule="evenodd" d="M70.2297 14.7664C80.2359 18.6543 82.5507 29.7197 82.5507 29.7197C84.1188 36.0001 84.5669 42.3552 84.4922 48.0374C84.5669 53.6449 84.0442 60.0001 82.5507 66.2804C82.5507 66.2804 80.2359 77.3459 70.2297 81.2337C65.5254 83.1029 56.938 83.9253 48.5 84.0001C40.062 83.9253 31.4746 83.0281 26.7703 81.2337C16.7641 77.3459 14.4493 66.2804 14.4493 66.2804C12.8812 60.0001 12.4331 53.6449 12.5078 47.9627C12.4331 42.3552 12.9558 36.0001 14.4493 29.7197C14.4493 29.7197 16.7641 18.6543 26.7703 14.7664C31.4746 12.972 40.062 12.0748 48.5 12.0001C56.938 12.0748 65.5254 12.972 70.2297 14.7664ZM60.3729 63.6636C61.493 63.6636 62.3144 62.6916 62.3144 61.4954L62.3891 45.5702C62.3891 44.4487 61.4184 43.6262 60.2236 43.6262H56.1913V39.9627C56.1913 35.701 52.7563 32.2617 48.5 32.2617C44.2437 32.2617 40.8087 35.701 40.8087 39.9627V43.6262H36.7764C35.5816 43.6262 34.6109 44.5234 34.6109 45.5702L34.7602 61.4954C34.7602 62.6916 35.6563 63.6636 36.7017 63.6636H60.3729ZM45.1394 39.9627C45.1394 38.0936 46.7076 36.5235 48.5744 36.5235C50.4412 36.5235 52.0093 38.0936 52.0093 39.9627V43.6263H45.1394V39.9627Z" fill="#F2F2F2"/>
<defs>
<radialGradient id="paint0_radial" cx="0" cy="0" r="1" gradientUnits="userSpaceOnUse" gradientTransform="translate(48.4997 48.0001) rotate(90) scale(44.9977)">
<stop stop-color="white" stop-opacity="0"/>
<stop offset="1" stop-color="white"/>
</radialGradient>
</defs>
</svg>
