<svg fill="none" height="29" viewBox="0 0 137 29" width="137" xmlns="http://www.w3.org/2000/svg" xmlns:xlink="http://www.w3.org/1999/xlink"><linearGradient id="a"><stop offset="0"/><stop offset="1" stop-color="#fff"/></linearGradient><linearGradient id="b" gradientUnits="userSpaceOnUse" x1="115.506" x2="133.338" xlink:href="#a" y1="2.97616" y2="13.6585"/><linearGradient id="c" gradientUnits="userSpaceOnUse" x1="118.089" x2="130.178" y1="22.8928" y2="7.66581"><stop offset="0" stop-color="#dedede"/><stop offset="1" stop-color="#f4f4f4"/></linearGradient><linearGradient id="d" gradientUnits="userSpaceOnUse" x1="114.136" x2="117.734" xlink:href="#a" y1="12.7129" y2="24.9283"/><clipPath id="e"><path d="m0 0h137v29h-137z"/></clipPath><g clip-path="url(#e)"><path d="m2.572 24v-19.88h3.864v16.492h10.136v3.388zm22.19.28c-1.176 0-2.24-.196-3.192-.588-.952-.4107-1.764-.9613-2.436-1.652s-1.1947-1.4933-1.568-2.408c-.3547-.9147-.532-1.876-.532-2.884 0-1.0453.1773-2.0253.532-2.94.3547-.9333.868-1.7453 1.54-2.436.672-.7093 1.484-1.2693 2.436-1.68.9707-.41067 2.0533-.616 3.248-.616s2.2587.20533 3.192.616c.952.4107 1.7547.9613 2.408 1.652.672.6907 1.176 1.4933 1.512 2.408.3547.9147.532 1.8667.532 2.856 0 .2427-.0093.476-.028.7 0 .224-.0187.4107-.056.56h-11.34c.056.5787.196 1.092.42 1.54s.5133.8307.868 1.148.756.56 1.204.728.9147.252 1.4.252c.7467 0 1.4467-.1773 2.1-.532.672-.3733 1.1293-.8587 1.372-1.456l3.22.896c-.5413 1.12-1.4093 2.044-2.604 2.772-1.176.7093-2.5853 1.064-4.228 1.064zm3.808-8.848c-.0933-1.1013-.504-1.9787-1.232-2.632-.7093-.672-1.5773-1.008-2.604-1.008-.504 0-.98.0933-1.428.28-.4293.168-.812.4107-1.148.728s-.616.7-.84 1.148c-.2053.448-.3267.9427-.364 1.484zm10.1537 8.848c-.7093 0-1.372-.112-1.988-.336-.616-.2427-1.148-.5693-1.596-.98-.448-.4293-.8026-.924-1.064-1.484-.2426-.56-.364-1.176-.364-1.848 0-.6907.1494-1.3253.448-1.904.3174-.5973.7467-1.1013 1.288-1.512.56-.4107 1.2227-.728 1.988-.952.7654-.2427 1.6054-.364 2.52-.364.6534 0 1.288.056 1.904.168.6347.112 1.1947.2707 1.68.476v-.84c0-.9707-.28-1.7173-.84-2.24-.5413-.5227-1.3533-.784-2.436-.784-.784 0-1.5493.14-2.296.42-.7466.28-1.512.6907-2.296 1.232l-1.148-2.38c1.8854-1.25067 3.92-1.876 6.104-1.876 2.1094 0 3.7427.52267 4.9 1.568 1.176 1.0267 1.764 2.52 1.764 4.48v4.564c0 .392.0654.672.196.84.1494.168.3827.2613.7.28v3.192c-.6346.1307-1.1853.196-1.652.196-.7093 0-1.26-.1587-1.652-.476-.3733-.3173-.6066-.7373-.7-1.26l-.084-.812c-.6533.8587-1.4466 1.512-2.38 1.96-.9333.448-1.932.672-2.996.672zm1.064-2.744c.6347 0 1.232-.112 1.792-.336.5787-.224 1.0267-.5227 1.344-.896.4107-.3173.616-.672.616-1.064v-1.68c-.448-.168-.9333-.2987-1.456-.392-.5226-.112-1.0266-.168-1.512-.168-.9706 0-1.764.224-2.38.672-.616.4293-.924.98-.924 1.652 0 .6347.2427 1.1667.728 1.596.4854.4107 1.0827.616 1.792.616zm17.0861 2.744c-1.008 0-1.9413-.196-2.8-.588-.8586-.392-1.596-.9333-2.212-1.624s-1.1013-1.4933-1.456-2.408c-.336-.9333-.504-1.932-.504-2.996s.1587-2.0533.476-2.968c.336-.9147.7934-1.7173 1.372-2.408.5787-.6907 1.2694-1.232 2.072-1.624.8027-.392 1.68-.588 2.632-.588 1.0827 0 2.0534.26133 2.912.784.8774.5227 1.5587 1.204 2.044 2.044v-8.344h3.752v16.128c0 .392.0654.672.196.84.1307.168.3547.2613.672.28v3.192c-.6533.1307-1.1853.196-1.596.196-.672 0-1.2226-.168-1.652-.504-.4293-.336-.672-.7747-.728-1.316l-.084-.924c-.5413.9333-1.2786 1.6427-2.212 2.128-.9146.4667-1.876.7-2.884.7zm.98-3.192c.3547 0 .7187-.056 1.092-.168.3734-.1307.7187-.308 1.036-.532.3174-.224.5974-.4853.84-.784.2614-.2987.4574-.6253.588-.98v-3.5c-.1493-.4107-.364-.784-.644-1.12-.2613-.3547-.5693-.6533-.924-.896-.336-.2613-.7-.4667-1.092-.616-.3733-.1493-.7466-.224-1.12-.224-.56 0-1.0826.1213-1.568.364-.4666.2427-.868.5787-1.204 1.008-.336.4107-.5973.8867-.784 1.428-.1866.5413-.28 1.1013-.28 1.68 0 .616.1027 1.1853.308 1.708.2054.5227.4854.98.84 1.372.3547.392.7747.7 1.26.924.504.224 1.0547.336 1.652.336zm19.7549-.364c.9147 0 1.68-.1867 2.296-.56.6347-.3733 1.1387-.8587 1.512-1.456.392-.5973.6627-1.2787.812-2.044.168-.784.252-1.5867.252-2.408v-10.136h3.836v10.136c0 1.3627-.168 2.6413-.504 3.836-.3173 1.1947-.8306 2.24-1.54 3.136-.6906.896-1.5866 1.6053-2.688 2.128-1.1013.5227-2.4173.784-3.948.784-1.5866 0-2.94-.2707-4.06-.812-1.1013-.56-1.9973-1.288-2.688-2.184-.6906-.9147-1.1946-1.9693-1.512-3.164-.2986-1.1947-.448-2.436-.448-3.724v-10.136h3.864v10.136c0 .84.0747 1.652.224 2.436.168.7653.4387 1.4467.812 2.044.392.5973.896 1.0827 1.512 1.456.616.3547 1.372.532 2.268.532zm14.644-16.604 4.956 7.392 4.9283-7.392h4.172l-7.0843 10.08 6.8603 9.8h-4.172l-4.7043-7.112-4.732 7.112h-4.2l6.86-9.8-7.084-10.08z" fill="#fff"/><g stroke-linecap="round" stroke-width="3.46463"><path d="m133.338 13.3028-17.789-10.25119" stroke="url(#b)"/><path d="m115.622 23.7326 17.806-10.28" stroke="url(#c)"/><path d="m115.622 23.7327.008-9.1585" stroke="url(#d)"/></g></g></svg>