<svg fill="none" height="62" viewBox="0 0 166 62" width="166" xmlns="http://www.w3.org/2000/svg" xmlns:xlink="http://www.w3.org/1999/xlink"><linearGradient id="a" gradientUnits="userSpaceOnUse" x1="121.915" x2="145.221" y1="16.2507" y2="30.2121"><stop offset="0"/><stop offset="1" stop-color="#1c69ff"/></linearGradient><linearGradient id="b" gradientUnits="userSpaceOnUse" x1="115.707" x2="131.454" y1="33.5173" y2="8.9142"><stop offset="0" stop-color="#d400f7"/><stop offset=".997707" stop-color="#115dd0"/></linearGradient><linearGradient id="c" gradientUnits="userSpaceOnUse" x1="120.125" x2="124.827" y1="28.9763" y2="44.9418"><stop offset="0"/><stop offset="1" stop-color="#e22fff"/></linearGradient><path d="m3.33399 20.8109h3.91934v17.7878h11.03447v3.3163h-14.95381zm31.46781 13.1449c0 .2612-.0201.6331-.0603 1.1155h-12.6323c.2211 1.1858.7939 2.1305 1.7184 2.8339.9447.6834 2.1105 1.0251 3.4973 1.0251 1.7687 0 3.2259-.5829 4.3716-1.7486l2.02 2.3214c-.7236.8643-1.6381 1.5175-2.7436 1.9597-1.1054.4422-2.3516.6633-3.7384.6633-1.7688 0-3.3265-.3518-4.6731-1.0552-1.3467-.7035-2.3918-1.6783-3.1355-2.9245-.7236-1.2662-1.0853-2.6933-1.0853-4.2811 0-1.5677.3517-2.9747 1.0552-4.2208.7235-1.2663 1.7185-2.2511 2.9847-2.9546 1.2663-.7035 2.6933-1.0552 4.2811-1.0552 1.5678 0 2.9647.3517 4.1907 1.0552 1.2462.6834 2.2109 1.6582 2.8943 2.9244.7035 1.2462 1.0552 2.6933 1.0552 4.3415zm-8.1402-5.3062c-1.2059 0-2.231.3617-3.0751 1.0853-.8241.7035-1.3266 1.6482-1.5075 2.834h9.1351c-.1608-1.1657-.6532-2.1104-1.4773-2.834s-1.8491-1.0853-3.0752-1.0853zm16.263-3.0149c2.3717 0 4.1806.5728 5.4267 1.7185 1.2663 1.1255 1.8994 2.834 1.8994 5.1253v9.4365h-3.5575v-1.9596c-.4623.7034-1.1256 1.2461-1.9899 1.628-.8441.3618-1.8692.5427-3.0751.5427-1.206 0-2.2612-.201-3.1657-.603-.9044-.4221-1.6079-.9949-2.1104-1.7185-.4824-.7436-.7236-1.5778-.7236-2.5023 0-1.4472.5327-2.6029 1.5979-3.4671 1.0854-.8844 2.7838-1.3266 5.0952-1.3266h4.1605v-.2412c0-1.1255-.3417-1.9898-1.025-2.5928-.6633-.603-1.6582-.9044-2.9848-.9044-.9044 0-1.7988.1407-2.6832.422-.8643.2814-1.5979.6734-2.2009 1.1758l-1.4773-2.7435c.8442-.6432 1.8592-1.1356 3.0451-1.4773 1.1858-.3417 2.442-.5125 3.7686-.5125zm-.5126 13.7478c.9447 0 1.7788-.211 2.5024-.6331.7437-.4422 1.2662-1.0652 1.5677-1.8692v-1.8692h-3.8892c-2.1707 0-3.256.7135-3.256 2.1405 0 .6834.2713 1.2261.814 1.6281.5427.4019 1.2964.6029 2.2611.6029zm27.3843-19.8379v22.3704h-3.6178v-2.0802c-.6231.7637-1.3969 1.3366-2.3215 1.7185-.9044.3818-1.9094.5728-3.0149.5728-1.5476 0-2.9445-.3417-4.1906-1.0251-1.2261-.6834-2.1909-1.6481-2.8943-2.8943-.7035-1.2662-1.0552-2.7134-1.0552-4.3414s.3517-3.0651 1.0552-4.3113c.7034-1.2461 1.6682-2.2109 2.8943-2.8943 1.2461-.6833 2.643-1.025 4.1906-1.025 1.0653 0 2.0401.1809 2.9245.5427.8843.3617 1.6381.9044 2.2611 1.628v-8.2608zm-8.5019 19.3556c.9044 0 1.7185-.201 2.442-.603.7236-.4221 1.2964-1.015 1.7185-1.7788s.6331-1.6481.6331-2.6531-.211-1.8893-.6331-2.6531-.9949-1.3466-1.7185-1.7486c-.7235-.4221-1.5376-.6331-2.442-.6331-.9045 0-1.7185.211-2.4421.6331-.7235.402-1.2964.9848-1.7185 1.7486-.422.7638-.6331 1.6481-.6331 2.6531s.2111 1.8893.6331 2.6531c.4221.7638.995 1.3567 1.7185 1.7788.7236.402 1.5376.603 2.4421.603zm21.6626 3.3163c-2.9144 0-5.1856-.814-6.8136-2.442-1.6281-1.6482-2.4421-3.9998-2.4421-7.0548v-11.9088h3.9194v11.758c0 4.1404 1.7888 6.2107 5.3665 6.2107 3.5575 0 5.3363-2.0703 5.3363-6.2107v-11.758h3.859v11.9088c0 3.055-.814 5.4066-2.442 7.0548-1.6079 1.628-3.8691 2.442-6.7835 2.442zm26.51-.3015-5.729-8.0195-5.6675 8.0195h-4.462l7.8385-10.7631-7.4164-10.341h4.4318l5.3966 7.507 5.336-7.507h4.251l-7.386 10.1903 7.929 10.9138z" fill="#fff"/><g stroke-linecap="round" stroke-width="4.52813"><path d="m145.222 29.7472-23.25-13.3978" stroke="url(#a)"/><path d="m122.068 43.3789 23.271-13.4355" stroke="url(#b)"/><path d="m122.068 43.3787.01-11.9698" stroke="url(#c)"/></g></svg>
