<svg fill="none" height="23" viewBox="0 0 123 23" width="123" xmlns="http://www.w3.org/2000/svg" xmlns:xlink="http://www.w3.org/1999/xlink"><clipPath id="a"><path d="m0 0h123v23h-123z"/></clipPath><g clip-path="url(#a)"><path clip-rule="evenodd" d="m17.445 2.801c-1.2843 1.00705-2.3226 2.29323-3.0361 3.76108-.7134 1.46786-1.0834 3.07886-1.0819 4.71092-.0017 1.6322.3682 3.2434 1.0817 4.7115.7135 1.468 1.7518 2.7544 3.0363 3.7615 1.2843-1.0071 2.3225-2.2933 3.036-3.7611.7134-1.4679 1.0835-3.0788 1.082-4.7109.0018-1.63239-.3681-3.24376-1.0816-4.71197s-1.7519-2.75472-3.0364-3.76203zm6.663-2.308996c-2.207 0-4.26.663996-5.968 1.801996.087.071.176.142.26.216 1.2544 1.08984 2.2604 2.43618 2.9499 3.94809.6896 1.51191 1.0466 3.15419 1.0471 4.81591 0 3.359-1.457 6.553-3.997 8.763-.084.073-.173.144-.26.216 1.7672 1.1779 3.8442 1.805 5.968 1.802 5.954 0 10.782-4.827 10.782-10.781 0-5.95499-4.828-10.781996-10.782-10.781996zm-7.618 19.544996c.084.073.173.144.26.216-1.7672 1.1781-3.8442 1.8052-5.968 1.802-5.955 0-10.782-4.827-10.782-10.781 0-5.95499 4.827-10.781996 10.782-10.781996 2.207 0 4.26.663996 5.968 1.801996-.087.071-.176.142-.26.215-1.2545 1.08999-2.2605 2.4365-2.95 3.94859-.6896 1.51208-1.0466 3.15453-1.047 4.81641 0 3.36 1.456 6.554 3.997 8.763zm39.932-8.717c0-1.26.825-2.295 2.176-2.295 1.29 0 2.16.99 2.16 2.295s-.87 2.295-2.16 2.295c-1.35 0-2.176-1.035-2.176-2.295zm5.806 0v-3.585h-1.56v.87c-.495-.645-1.245-1.05-2.265-1.05-2.01 0-3.586 1.575-3.586 3.765s1.575 3.765 3.586 3.765c1.02 0 1.77-.405 2.265-1.05v.87h1.56zm52.68 0c0-1.26.826-2.295 2.176-2.295 1.29 0 2.16.99 2.16 2.295s-.87 2.295-2.16 2.295c-1.35 0-2.175-1.035-2.175-2.295zm7.55 3.245v.113h.105c.02.001.04-.0039.057-.014.014-.01.02-.024.02-.044 0-.008-.001-.0159-.005-.0231-.003-.0072-.008-.0133-.015-.0179-.017-.0103-.037-.0151-.057-.014h-.104zm.106-.08c.054 0 .096.013.125.037.014.0118.026.0268.034.0438.007.017.011.0356.01.0542.001.0162-.002.0322-.008.0472s-.015.0286-.027.0398c-.028.0245-.063.0393-.1.042l.139.16h-.108l-.129-.16h-.041v.16h-.09v-.423h.195zm-.027.568c.046.0004.092-.0085.135-.0262s.082-.0438.114-.0768c.033-.0328.059-.0719.077-.115s.027-.0894.026-.136c.001-.0587-.013-.1167-.041-.1686-.027-.0519-.067-.0961-.116-.1286s-.105-.0523-.164-.0575c-.058-.0052-.117.0043-.171.0277-.085.036-.152.1034-.188.188-.019.0438-.028.0909-.028.1385s.009.0947.028.1385c.027.0645.073.1195.131.158s.127.0587.197.058zm0-.81c.122-.0008.239.0468.326.1323.087.0854.136.2019.137.3237 0 .0598-.011.1191-.035.1741-.023.0551-.058.1047-.101.1459-.088.0852-.205.1335-.327.135-.122.0011-.239-.0462-.327-.1314-.087-.0853-.137-.2016-.139-.3236.001-.0605.013-.1204.037-.176.023-.0557.058-.1062.101-.1485.044-.0423.095-.0756.151-.098s.116-.0334.177-.0325zm-1.823-2.923v-6.465h-1.56v3.75c-.495-.645-1.245-1.05-2.265-1.05-2.01 0-3.585 1.575-3.585 3.765s1.575 3.765 3.585 3.765c1.02 0 1.77-.405 2.265-1.05v.87h1.56zm-39.136-2.37c1.005 0 1.65.63 1.815 1.74h-3.72c.165-1.035.795-1.74 1.905-1.74zm.03-1.395c-2.1 0-3.57 1.53-3.57 3.765 0 2.28 1.53 3.765 3.675 3.765 1.08 0 2.07-.27 2.94-1.005l-.765-1.155c-.6.48-1.365.75-2.085.75-1.005 0-1.92-.465-2.145-1.755h5.325c.015-.195.03-.39.03-.6-.015-2.235-1.395-3.765-3.405-3.765zm18.825 3.765c0-1.26.825-2.295 2.176-2.295 1.29 0 2.16.99 2.16 2.295s-.87 2.295-2.16 2.295c-1.35 0-2.176-1.035-2.176-2.295zm5.806 0v-3.585h-1.56v.87c-.495-.645-1.245-1.05-2.266-1.05-2.01 0-3.585 1.575-3.585 3.765s1.575 3.765 3.585 3.765c1.02 0 1.77-.405 2.266-1.05v.87h1.56zm-14.61 0c0 2.175 1.514 3.765 3.825 3.765 1.08 0 1.8-.24 2.58-.855l-.75-1.26c-.586.42-1.2.645-1.876.645-1.245-.015-2.16-.915-2.16-2.295s.915-2.28 2.16-2.295c.675 0 1.29.225 1.875.645l.75-1.26c-.78-.615-1.5-.855-2.58-.855-2.31 0-3.825 1.59-3.825 3.765zm20.1-3.765c-.9 0-1.485.42-1.89 1.05v-.87h-1.545v7.17h1.56v-4.02c0-1.185.51-1.845 1.53-1.845.315 0 .645.045.975.18001l.48-1.47001c-.356-.12755-.732-.19349-1.11-.195zm-41.791.75c-.75-.495-1.785-.75-2.925-.75-1.815 0-2.985.87-2.985 2.29501 0 1.16999.87 1.88999 2.474 2.11499l.736.105c.855.12 1.26.345 1.26.75 0 .555-.57.87-1.635.87-1.08 0-1.86-.345-2.386-.75l-.734 1.215c.854.63 1.935.93 3.105.93 2.07 0 3.27-.975 3.27-2.34 0-1.26-.945-1.92-2.505-2.145l-.735-.105c-.675-.09-1.215-.225-1.215-.705 0-.52499.51-.84 1.365-.84.915 0 1.8.345 2.235.615zm20.115-.75c-.9 0-1.485.42-1.89 1.05v-.87h-1.545v7.17h1.56v-4.02c0-1.185.51-1.845 1.53-1.845.315 0 .645.045.975.18001l.48-1.47001c-.3562-.12759-.7316-.19353-1.11-.195zm-13.305.18h-2.55v-2.175h-1.575v2.175h-1.455v1.425h1.455v3.27c0 1.665.645 2.655 2.49 2.655.675 0 1.455-.21 1.95-.555l-.45-1.335c-.465.27-.975.405-1.38.405-.78 0-1.035-.48-1.035-1.2v-3.24h2.55zm-23.31 7.17v-4.5c0-1.695-1.08-2.835-2.82-2.85-.916-.015-1.86.27-2.52 1.275-.496-.795-1.276-1.275-2.37-1.275-.766 0-1.516.225-2.1 1.065v-.885h-1.56v7.17h1.574v-3.975c0-1.24499.69-1.905 1.755-1.905 1.035 0 1.56.675 1.56 1.89v3.99h1.575v-3.975c0-1.24499.72-1.905 1.755-1.905 1.065 0 1.575.675 1.575 1.89v3.99h1.575zm-18.885 3.05v-.42h-.11l-.125.289-.126-.288h-.109v.418h.077v-.315l.118.272h.08l.118-.273v.316h.077zm-.692 0v-.348h.14v-.07h-.356v.07h.14v.347h.076z" fill="#e7e7e7" fill-rule="evenodd"/></g></svg>