<svg width="10" height="6" viewBox="0 0 10 6" fill="none" xmlns="http://www.w3.org/2000/svg">
<path d="M9.7194 0.275852C9.54166 0.0991705 9.30123 0 9.05062 0C8.80001 0 8.55958 0.0991705 8.38184 0.275852L4.97628 3.63398L1.61816 0.275852C1.44042 0.0991705 1.19999 0 0.94938 0C0.698767 0 0.458337 0.0991705 0.280601 0.275852C0.191688 0.364039 0.121116 0.468958 0.0729554 0.584556C0.0247951 0.700155 0 0.824145 0 0.949375C0 1.0746 0.0247951 1.19859 0.0729554 1.31419C0.121116 1.42979 0.191688 1.53471 0.280601 1.6229L4.30276 5.64506C4.39095 5.73397 4.49587 5.80454 4.61147 5.8527C4.72706 5.90086 4.85105 5.92566 4.97628 5.92566C5.10151 5.92566 5.2255 5.90086 5.3411 5.8527C5.4567 5.80454 5.56162 5.73397 5.64981 5.64506L9.7194 1.6229C9.80831 1.53471 9.87888 1.42979 9.92704 1.31419C9.9752 1.19859 10 1.0746 10 0.949375C10 0.824145 9.9752 0.700155 9.92704 0.584556C9.87888 0.468958 9.80831 0.364039 9.7194 0.275852Z" fill="#969696"/>
</svg>
