<svg fill="none" height="23" viewBox="0 0 62 23" width="62" xmlns="http://www.w3.org/2000/svg" xmlns:xlink="http://www.w3.org/1999/xlink"><clipPath id="a"><path d="m0 .5h62v22h-62z"/></clipPath><g clip-path="url(#a)"><path d="m26.922 20.3514h-4.9225l3.0789-19.851365h4.9214zm17.0781-18.9897c-1.4306-.576535-2.9517-.86877-4.485-.861665-4.9378 0-8.4157 2.754885-8.4367 6.691665-.041 2.9052 2.4893 4.5198 4.3821 5.4878 1.9349.99 2.5923 1.6365 2.5923 2.5178-.0199 1.3566-1.5629 1.98-3.0029 1.98-1.9969 0-3.0661-.3215-4.691-1.0756l-.6597-.3227-.6996 4.5406c1.1733.5585 3.334 1.0548 5.5777 1.0755 5.2466 0 8.6624-2.7108 8.7034-6.9067.0199-2.3027-1.3172-4.0676-4.1985-5.50981-1.7488-.92522-2.818-1.54855-2.818-2.49578.0198-.86166.9054-1.74289 2.88-1.74289 1.6261-.04277 2.8193.36545 3.7247.77489l.4527.21389zm7.7605 11.957c.4142-1.1403 2.0028-5.55378 2.0028-5.55378-.0199.04156.4129-1.16111.6609-1.90055l.3509 1.71111s.9488 4.75082 1.1558 5.74442h-4.1704zm6.193-12.818665h-3.8802c-1.1968 0-2.1057.358111-2.6228 1.647555l-7.4517 18.20381h5.2642l1.0528-2.9774h6.441c.1439.6967.599 2.9774.599 2.9774h4.6441l-4.0475-19.851365zm-52.71284 2.526335c-1.54299-.89222-3.29302-1.60967-5.24076-2.116891l.0853962-.409444h8.3138538c1.12652.042778 2.04135.409444 2.33965 1.705005l1.8062 9.32306c-.8049-2.22684-2.1385-4.28262-3.96687-6.0194 1.70557 1.70867 3.04497 3.806 3.61707 5.7933l.5393 2.75 4.9366-13.551965h5.3285l-7.9208 19.851365h-5.33086z" fill="#e7e7e7"/></g></svg>