<svg version="1" xmlns="http://www.w3.org/2000/svg" width="682.667" height="682.667" viewBox="0 0 512.000000 512.000000"><path d="M121.6 38.6c-13.5 4.9-21.2 20.7-16.7 34.2 3.1 9.1 7.4 12.9 27.1 24 1.9 1 5.9 3.3 8.8 5.1 2.9 1.7 5.7 3.1 6.2 3.1.6 0 1 .4 1 1 0 .5.4 1 .9 1 .8 0 31.3 17.3 42.3 24 1.8 1.1 4 2.3 4.8 2.7.8.4 7.8 4.4 15.5 8.9s15.8 9.2 18 10.4c5.8 3.2 55.5 31.9 72 41.5 7.7 4.5 14.7 8.4 15.5 8.8.8.4 2.9 1.6 4.5 2.6 3.5 2.2 19.2 11.3 25 14.5 2.2 1.3 15.7 9 30 17.3 14.3 8.2 26.8 15.4 27.8 16 1.6.8.9 1.5-5 5-8.5 5-42.4 24.7-51.8 30-3.8 2.2-21.6 12.4-39.5 22.8-37 21.4-61.9 35.8-67 38.7-1.9 1.1-6.4 3.7-10 5.8-6.3 3.7-9.1 5.2-19.5 11.2-2.7 1.6-5.7 3.3-6.5 3.8-.8.6-6.9 4.1-13.5 7.9-6.6 3.7-16 9.1-20.8 12-4.9 2.8-9.3 5.1-9.7 5.1-.5 0-1.1-27.6-1.2-63.8-.3-63-.3-63.7-2.4-67.7-3.3-6-8-10.4-14.1-13.2-4.5-2.1-6.6-2.4-12.1-2.1-3.7.2-8.3 1.2-10.3 2.1-4.9 2.4-10.4 7.8-13.1 12.9l-2.3 4.3v92c0 89.6.1 92.1 2 96 6.5 13.3 22.7 19.2 36 13.3 2.4-1 36.9-20.8 43.5-24.9.8-.5 25.8-14.9 55.5-32 46.6-26.8 64.2-37 71.6-41.4 1-.6 3-1.7 4.6-2.6 1.5-.8 10.5-6 19.8-11.4 9.4-5.4 18.6-10.7 20.5-11.8 1.9-1.1 4.9-2.8 6.5-3.8 1.7-1.1 3.6-2.2 4.4-2.6.8-.3 6.4-3.5 12.5-7.1 6.1-3.6 12.5-7.2 14.1-8.2 1.7-.9 11.8-6.8 22.5-13s21.5-12.4 24-13.8c2.5-1.4 7.7-4.4 11.5-6.6 3.9-2.3 8.6-5 10.6-6 7.7-4 14.4-9.3 17.3-13.3 5.6-8 6.2-19.4 1.5-28.7-4.4-8.8-7.1-10.7-46.9-33.6-21.2-12.2-48.5-28-60.8-35.1-12.3-7.1-22.6-12.9-22.9-12.9-.3 0-1.7-.8-3.1-1.9-1.5-1-4.7-3-7.2-4.4-3.9-2.2-20.7-11.8-76.5-44-7.7-4.4-18-10.4-23-13.2C206.6 76 183.7 63 182.9 63c-.5 0-.9-.5-.9-1 0-.6-.4-1-.9-1-.6 0-9.2-4.8-19.3-10.6-10.1-5.8-20-11.2-22.2-12-4.9-1.8-12.9-1.7-18 .2z"/></svg>