<svg width="14" height="18" viewBox="0 0 14 18" fill="none" xmlns="http://www.w3.org/2000/svg">
<path d="M11.375 6.125V4.375C11.375 3.21468 10.9141 2.10188 10.0936 1.28141C9.27312 0.460936 8.16032 0 7 0C5.83968 0 4.72688 0.460936 3.90641 1.28141C3.08594 2.10188 2.625 3.21468 2.625 4.375V6.125C1.92881 6.125 1.26113 6.40156 0.768845 6.89384C0.276562 7.38613 0 8.05381 0 8.75V14.875C0 15.5712 0.276562 16.2389 0.768845 16.7312C1.26113 17.2234 1.92881 17.5 2.625 17.5H11.375C12.0712 17.5 12.7389 17.2234 13.2312 16.7312C13.7234 16.2389 14 15.5712 14 14.875V8.75C14 8.05381 13.7234 7.38613 13.2312 6.89384C12.7389 6.40156 12.0712 6.125 11.375 6.125ZM4.375 4.375C4.375 3.67881 4.65156 3.01113 5.14384 2.51884C5.63613 2.02656 6.30381 1.75 7 1.75C7.69619 1.75 8.36387 2.02656 8.85616 2.51884C9.34844 3.01113 9.625 3.67881 9.625 4.375V6.125H4.375V4.375ZM12.25 14.875C12.25 15.1071 12.1578 15.3296 11.9937 15.4937C11.8296 15.6578 11.6071 15.75 11.375 15.75H2.625C2.39294 15.75 2.17038 15.6578 2.00628 15.4937C1.84219 15.3296 1.75 15.1071 1.75 14.875V8.75C1.75 8.51794 1.84219 8.29538 2.00628 8.13128C2.17038 7.96719 2.39294 7.875 2.625 7.875H11.375C11.6071 7.875 11.8296 7.96719 11.9937 8.13128C12.1578 8.29538 12.25 8.51794 12.25 8.75V14.875Z" fill="#F75A80"/>
</svg>
