<svg width="11" height="7" viewBox="0 0 11 7" fill="none" xmlns="http://www.w3.org/2000/svg">
<path d="M10.2458 5.95579C10.0584 6.14204 9.80498 6.24658 9.5408 6.24658C9.27661 6.24658 9.02316 6.14204 8.8358 5.95579L5.2458 2.41579L1.7058 5.95579C1.51844 6.14204 1.26498 6.24658 1.0008 6.24658C0.736612 6.24658 0.483161 6.14204 0.295798 5.95579C0.20207 5.86283 0.127675 5.75223 0.0769067 5.63037C0.026138 5.50851 0 5.3778 0 5.24579C0 5.11378 0.026138 4.98307 0.0769067 4.86121C0.127675 4.73935 0.20207 4.62875 0.295798 4.53579L4.5358 0.29579C4.62876 0.202061 4.73936 0.127667 4.86122 0.0768986C4.98308 0.0261297 5.11379 -8.58307e-06 5.2458 -8.58307e-06C5.37781 -8.58307e-06 5.50852 0.0261297 5.63037 0.0768986C5.75223 0.127667 5.86283 0.202061 5.9558 0.29579L10.2458 4.53579C10.3395 4.62875 10.4139 4.73935 10.4647 4.86121C10.5155 4.98307 10.5416 5.11378 10.5416 5.24579C10.5416 5.3778 10.5155 5.50851 10.4647 5.63037C10.4139 5.75223 10.3395 5.86283 10.2458 5.95579Z" fill="#C1C1C1"/>
</svg>
